<svg width="16" height="18" viewBox="0 0 16 18" fill="none" xmlns="http://www.w3.org/2000/svg">
<path d="M15.1669 16.327L9.3335 1.19725C9.11128 0.539434 8.55571 0.0610222 7.88903 0.0012207H7.38902C6.66679 0.0012207 6.11122 0.479632 5.889 1.19725L3.38895 7.77541H1.44447C0.888905 7.77541 0.388896 8.25382 0.388896 8.91164C0.388896 9.50965 0.833348 10.0479 1.44447 10.0479H2.44449L0.0555566 16.327C0 16.5064 0 16.626 0 16.8054C0 17.1044 0.111113 17.4034 0.277783 17.6426C0.500009 17.8221 0.777792 17.9417 1.05557 17.9417C1.2778 17.9417 1.50003 17.8819 1.6667 17.7025C1.83337 17.5828 2.00004 17.3436 2.05559 17.1044L4.72231 9.98806H6.55568C7.11124 9.98806 7.61125 9.50965 7.61125 8.85184V8.79203C7.61125 8.19402 7.1668 7.65581 6.55568 7.65581H5.55566L7.55569 2.21387L13.0558 17.0446C13.1669 17.2838 13.278 17.4632 13.4447 17.6426C13.6114 17.7623 13.8336 17.8819 14.0558 17.8819C14.3336 17.8819 14.6114 17.7623 14.8336 17.5828C15.0003 17.3436 15.1114 17.0446 15.1114 16.7456C15.2225 16.626 15.1669 16.5064 15.1669 16.327Z" fill="url(#paint0_linear_2134_16592)"/>
<defs>
<linearGradient id="paint0_linear_2134_16592" x1="-0.771703" y1="12.1763" x2="60.3514" y2="0.00930986" gradientUnits="userSpaceOnUse">
<stop stop-color="#30BAC6"/>
<stop offset="1" stop-color="#B6509E"/>
</linearGradient>
</defs>
</svg>