<svg width="41" height="13" viewBox="0 0 41 13" fill="none" xmlns="http://www.w3.org/2000/svg">
<path d="M25.5022 11.3504L21.5716 1.84225C21.5716 1.72995 21.5342 1.65509 21.5342 1.58022C21.5342 1.39305 21.609 1.20588 21.7213 1.05615C21.8711 0.90641 22.0583 0.831543 22.2454 0.831543C22.3952 0.831543 22.5449 0.868977 22.6572 0.981278C22.7695 1.05615 22.8818 1.20588 22.9192 1.31818L26.6626 10.6018L30.3685 1.31818C30.4434 1.16845 30.5183 1.05615 30.668 0.943844C30.7803 0.868977 30.9301 0.831543 31.0798 0.831543C31.267 0.831543 31.4541 0.90641 31.6039 1.01871C31.7536 1.16845 31.791 1.35562 31.791 1.54278C31.791 1.61765 31.791 1.72995 31.7536 1.80482L27.8231 11.3504C27.6733 11.7622 27.299 12.0617 26.8498 12.0991H26.5129C26.0262 12.0617 25.6519 11.7622 25.5022 11.3504Z" fill="url(#paint0_linear)"/>
<path d="M33.4384 11.7623C33.2887 11.6125 33.2138 11.4254 33.2512 11.2382V1.65517C33.2512 1.468 33.3261 1.28083 33.4384 1.1311C33.5881 0.981362 33.7379 0.906494 33.9625 0.906494H40.3262C40.5134 0.906494 40.7006 0.981362 40.8129 1.09366C40.9626 1.20596 41 1.39313 41 1.5803C41 1.76747 40.9252 1.91721 40.8129 2.06694C40.7006 2.17924 40.5134 2.25411 40.3262 2.25411H34.7112V5.77288H39.7647C39.9519 5.77288 40.139 5.84775 40.2513 5.96005C40.3637 6.07235 40.4385 6.25952 40.4385 6.44669C40.4385 6.63386 40.3637 6.78359 40.2513 6.93333C40.139 7.04563 39.9519 7.1205 39.7647 7.1205H34.6737V10.6393H40.2888C40.476 10.6393 40.6631 10.7141 40.7754 10.8264C40.9252 10.9387 40.9626 11.1259 40.9626 11.3131C40.9626 11.5002 40.8877 11.65 40.7754 11.7997C40.6631 11.912 40.476 11.9869 40.2888 11.9869H33.925C33.7753 11.9869 33.5881 11.912 33.4384 11.7623Z" fill="url(#paint1_linear)"/>
<path d="M22.4702 11.051L18.5397 1.58022C18.39 1.16845 18.0156 0.868977 17.5664 0.831543H17.2295C16.7803 0.831543 16.3685 1.13101 16.2562 1.58022L14.5343 5.69793H13.2615C12.8872 5.69793 12.5503 5.9974 12.5503 6.40917C12.5503 6.78351 12.8498 7.12041 13.2615 7.12041H13.9728L12.3631 11.051C12.3257 11.1258 12.3257 11.2381 12.3257 11.313C12.3257 11.5002 12.4006 11.6873 12.5129 11.8371C12.6626 11.9868 12.8498 12.0617 13.0369 12.0242C13.1867 12.0242 13.3364 11.9868 13.4487 11.8745C13.561 11.7996 13.6733 11.6499 13.7107 11.5002L15.5076 7.04555H16.7429C17.1172 7.04555 17.4541 6.74608 17.4541 6.3343V6.29687C17.4541 5.92253 17.1546 5.58563 16.7429 5.58563H16.0691L17.4167 2.29146L21.1226 11.575C21.1975 11.7248 21.2723 11.8371 21.3847 11.9494C21.497 12.0242 21.6467 12.0991 21.7964 12.0991C21.9836 12.0991 22.1708 12.0242 22.3205 11.9119C22.4328 11.7622 22.5077 11.575 22.5077 11.3879C22.5451 11.2381 22.5077 11.1633 22.4702 11.051Z" fill="url(#paint2_linear)"/>
<path d="M10.7907 11.0516L6.86016 1.58089C6.71042 1.16912 6.33609 0.869648 5.88688 0.832214H5.54998C5.06334 0.832214 4.689 1.13168 4.53927 1.58089L2.85475 5.6986H1.54457C1.17023 5.6986 0.833325 5.99807 0.833325 6.40984C0.833325 6.78418 1.1328 7.12108 1.54457 7.12108H2.21837L0.608723 11.0516C0.571289 11.1639 0.571289 11.2388 0.571289 11.3511C0.571289 11.5383 0.646157 11.7254 0.758458 11.8752C0.908193 11.9875 1.09536 12.0623 1.28253 12.0623C1.43227 12.0623 1.582 12.0249 1.6943 11.9126C1.8066 11.8377 1.9189 11.688 1.95634 11.5383L3.75316 7.08365H4.98847C5.36281 7.08365 5.69971 6.78418 5.69971 6.37241V6.33498C5.69971 5.96064 5.40024 5.62373 4.98847 5.62373H4.31466L5.66228 2.21726L9.36822 11.5008C9.44309 11.6506 9.51796 11.7629 9.63026 11.8752C9.74256 11.95 9.89229 12.0249 10.042 12.0249C10.2292 12.0249 10.4164 11.95 10.5661 11.8377C10.6784 11.688 10.7533 11.5008 10.7533 11.3137C10.8281 11.2388 10.7907 11.1639 10.7907 11.0516Z" fill="url(#paint3_linear)"/>
<defs>
<linearGradient id="paint0_linear" x1="1.06524" y1="12.4266" x2="41.9659" y2="3.76381" gradientUnits="userSpaceOnUse">
<stop stop-color="#30BAC6"/>
<stop offset="1" stop-color="#B6509E"/>
</linearGradient>
<linearGradient id="paint1_linear" x1="1.82224" y1="15.3972" x2="43.033" y2="10.2612" gradientUnits="userSpaceOnUse">
<stop stop-color="#30BAC6"/>
<stop offset="1" stop-color="#B6509E"/>
</linearGradient>
<linearGradient id="paint2_linear" x1="0.701113" y1="10.7385" x2="41.459" y2="3.01895" gradientUnits="userSpaceOnUse">
<stop stop-color="#30BAC6"/>
<stop offset="1" stop-color="#B6509E"/>
</linearGradient>
<linearGradient id="paint3_linear" x1="0.0513193" y1="8.45339" x2="40.9882" y2="-0.317985" gradientUnits="userSpaceOnUse">
<stop stop-color="#30BAC6"/>
<stop offset="1" stop-color="#B6509E"/>
</linearGradient>
</defs>
</svg>
