<svg width="14" height="14" viewBox="0 0 14 14" fill="none" xmlns="http://www.w3.org/2000/svg">
<g clip-path="url(#clip0)">
<path d="M9.27689 5.42421C8.87444 5.28949 8.03601 5.39091 7.22593 5.48886C6.77425 5.54365 6.34734 5.59531 6.04594 5.59987C5.97017 5.60074 5.90223 5.64613 5.87131 5.71439C5.814 5.84175 5.78383 5.92543 5.75976 5.9911C5.72324 6.0914 5.71108 6.12521 5.62914 6.22869C5.5929 6.27444 5.57893 6.33362 5.59108 6.39048C5.69485 6.87502 5.47106 7.05533 5.29251 7.1476C5.23564 7.17713 5.2093 7.16677 5.18734 7.1536C5.03607 7.06385 4.89323 6.63914 4.88752 6.26279C4.8737 5.3671 4.98724 5.02229 5.68875 4.74189C6.48476 4.42395 7.22733 4.05199 7.23471 4.04829C7.33153 3.99941 7.36972 3.88282 7.32141 3.78655C7.27283 3.69056 7.15594 3.65155 7.05968 3.69986C7.05229 3.70356 6.3245 4.06813 5.54409 4.37949C4.63523 4.74267 4.48266 5.27767 4.49793 6.26814C4.50363 6.64505 4.63863 7.28041 4.98764 7.48871C5.1364 7.57713 5.3084 7.57893 5.47271 7.49294C5.88475 7.27754 6.06517 6.89121 5.98829 6.39855C6.06087 6.29632 6.08768 6.22839 6.1255 6.12393C6.13926 6.08625 6.15541 6.04219 6.17852 5.98534C6.48392 5.97107 6.86819 5.92474 7.27255 5.87563C8.00396 5.78712 8.83331 5.68667 9.15322 5.79343C9.3111 5.84615 9.3273 5.96993 9.32282 6.03889C9.31665 6.1404 9.25822 6.23084 9.18952 6.24399C9.11452 6.25918 9.05531 6.3163 9.03796 6.39014C9.02034 6.46426 9.04769 6.54183 9.10765 6.5886C9.20582 6.66538 9.17776 6.79616 9.16119 6.84849C9.11967 6.98195 9.02121 7.06777 8.95485 7.07125C8.8805 7.07514 8.81533 7.12104 8.78549 7.18873C8.75593 7.25668 8.76815 7.33588 8.8164 7.39246C8.89999 7.48985 8.92215 7.64329 8.87053 7.76533C8.84524 7.82385 8.79479 7.89544 8.68989 7.90171C8.62493 7.90599 8.56621 7.94243 8.53344 7.99804C8.5004 8.05447 8.49786 8.12314 8.5263 8.18168C8.53514 8.20056 8.55703 8.24515 8.43004 8.37605C8.33968 8.46918 8.11421 8.57566 7.98045 8.60496C7.82061 8.64044 6.76414 8.81049 5.80307 8.91017C5.66769 8.9238 5.40752 8.92222 5.17766 8.92073C4.97371 8.91942 4.78798 8.91892 4.70157 8.9274C4.59343 8.93813 4.51551 9.03355 4.52678 9.14059C4.53749 9.24762 4.63293 9.32611 4.73997 9.31538C4.81867 9.30757 4.98873 9.30968 5.17503 9.31072C5.42638 9.31242 5.68627 9.31428 5.84312 9.29813C6.78439 9.20038 7.86237 9.03113 8.06531 8.98589C8.23286 8.94863 8.54312 8.8191 8.70973 8.64737C8.8435 8.50949 8.91473 8.37282 8.92429 8.23931C9.05812 8.17805 9.16694 8.06643 9.22945 7.91806C9.30369 7.74304 9.30588 7.54212 9.24315 7.36615C9.37355 7.27875 9.47942 7.13659 9.53306 6.96605C9.58538 6.79908 9.57764 6.63414 9.51574 6.4959C9.62961 6.39028 9.70142 6.23736 9.71202 6.06359C9.73047 5.7698 9.55967 5.51833 9.27689 5.42421Z" fill="white"/>
<path d="M4.53128 5.67928L3.31024 6.93785C3.23535 7.01504 3.23721 7.13848 3.31441 7.21337C3.3916 7.28826 3.51504 7.2864 3.58993 7.2092L4.81097 5.95063C4.88586 5.87344 4.88399 5.75 4.8068 5.67511C4.72961 5.60022 4.60617 5.60209 4.53128 5.67928Z" fill="white"/>
<path d="M9.37696 4.72573C9.27086 4.70695 9.16912 4.77655 9.15062 4.88292L9.02856 5.55827C9.0095 5.66409 9.07992 5.76555 9.18576 5.78461C9.25207 5.79629 9.31677 5.77326 9.36046 5.72823C9.38624 5.70165 9.405 5.6672 9.41213 5.62741L9.53418 4.95207C9.55322 4.84624 9.4828 4.74481 9.37696 4.72573Z" fill="white"/>
<path d="M9.20186 6.24138C9.02585 6.26498 8.13303 6.26803 7.57577 6.26488C7.468 6.26403 7.38004 6.35079 7.37973 6.45855C7.37888 6.56632 7.4659 6.65401 7.5734 6.65459C7.71809 6.65543 8.99411 6.66259 9.25347 6.62807C9.29829 6.62216 9.33794 6.60089 9.36724 6.57069C9.40713 6.52958 9.42856 6.47055 9.42072 6.40867C9.40671 6.30221 9.30857 6.22708 9.20186 6.24138Z" fill="white"/>
<path d="M8.94029 7.07232C8.64378 7.10987 7.78821 7.09691 7.59246 7.09161C7.48439 7.08884 7.39556 7.17369 7.39223 7.28121C7.38944 7.38873 7.47431 7.47865 7.58183 7.48145C7.59202 7.48156 8.62167 7.5054 8.98914 7.45906C9.03452 7.45313 9.07471 7.43185 9.10428 7.40137C9.1439 7.36053 9.16532 7.30207 9.15807 7.24128C9.14434 7.13453 9.04674 7.05885 8.94029 7.07232Z" fill="white"/>
<path d="M8.68209 7.90207C8.32053 7.93841 7.49029 7.92507 7.32765 7.92201C7.21987 7.92007 7.13077 8.00574 7.12909 8.11324C7.12714 8.22102 7.21279 8.30956 7.32032 8.3118C7.55435 8.31624 8.34708 8.3274 8.72103 8.29004C8.76862 8.28519 8.81046 8.26389 8.84139 8.232C8.87992 8.19229 8.9014 8.13602 8.89554 8.07658C8.88454 7.96928 8.78911 7.89135 8.68209 7.90207Z" fill="white"/>
<path d="M3.16219 6.60744C2.70254 6.6268 1.69909 7.5139 1.40255 7.78542C1.36207 7.82324 1.33966 7.87262 1.3391 7.92637C1.33824 7.97985 1.3597 8.03161 1.39829 8.06905L3.91544 10.5111C3.99263 10.586 4.11607 10.5842 4.19096 10.507L5.00499 9.66793C5.0636 9.60752 5.07683 9.51611 5.03738 9.44147C4.99453 9.36027 3.98311 7.44351 3.31752 6.67454C3.27854 6.62964 3.22139 6.60461 3.16219 6.60744ZM4.62627 9.49868L4.04695 10.0958L1.81955 7.93482C2.29111 7.51982 2.83882 7.10974 3.09535 7.01657C3.63595 7.68493 4.39885 9.07607 4.62627 9.49868Z" fill="white"/>
<path d="M7.91465 1.63224C6.84936 2.73028 6.53946 3.61212 6.52651 3.64897C6.5083 3.70187 6.51358 3.75967 6.54105 3.80803C6.56852 3.85639 6.61505 3.8907 6.66952 3.90282C7.1155 3.99996 9.18606 4.95822 9.66401 5.21994C9.74098 5.26204 9.83639 5.24764 9.89744 5.18471L10.7115 4.34566C10.7864 4.26847 10.7845 4.14503 10.7073 4.07014L8.19016 1.62806C8.11269 1.5529 7.98955 1.55505 7.91465 1.63224ZM10.2961 4.21416L9.71925 4.80877C9.1588 4.52238 7.65292 3.82151 6.97562 3.58843C7.11022 3.30477 7.43049 2.7256 8.06036 2.04505L10.2961 4.21416Z" fill="white"/>
</g>
<defs>
<clipPath id="clip0">
<rect width="9.35229" height="9.35229" fill="white" transform="translate(0 6.7124) rotate(-45.867)"/>
</clipPath>
</defs>
</svg>
