<svg width="24" height="21" viewBox="0 0 24 21" fill="none" xmlns="http://www.w3.org/2000/svg">
<path d="M17.6449 12.4927C18.1993 11.5352 19.0938 11.5352 19.6481 12.4927L23.1001 18.5525C23.6544 19.51 23.2008 20.2911 22.0922 20.2911H15.1378C14.0418 20.2911 13.5882 19.51 14.13 18.5525L17.6449 12.4927ZM10.9678 0.826509C11.5221 -0.130972 12.404 -0.130972 12.9583 0.826509L13.7268 2.21234L15.541 5.39974C15.9819 6.30682 15.9819 7.37769 15.541 8.28478L9.45596 18.8297C8.90162 19.6864 7.98194 20.2281 6.96147 20.2911H1.9095C0.800836 20.2911 0.347293 19.5226 0.901624 18.5525L10.9678 0.826509Z" fill="#E84142"/>
</svg>