<svg width="12" height="11" viewBox="0 0 12 11" fill="none" xmlns="http://www.w3.org/2000/svg">
<path d="M9.74828 0.0264206C9.44339 0.0264206 9.13507 0.127297 8.88061 0.335893L5.57843 3.02601L2.24416 0.309531C1.98855 0.102069 1.68137 5.81741e-05 1.37649 5.81741e-05C0.977617 5.81741e-05 0.581036 0.173145 0.309376 0.506676C-0.170868 1.09582 -0.0814772 1.96234 0.50652 2.44145L4.70961 5.86628C5.21509 6.27891 5.94177 6.27891 6.44724 5.86628L10.6171 2.46781C11.2062 1.9887 11.2945 1.12219 10.8154 0.533039C10.5426 0.199496 10.1472 0.0264206 9.74828 0.0264206Z" fill="#E5E4FF"/>
<path d="M9.74828 4.85067C9.44339 4.85067 9.13507 4.95154 8.88061 5.16014L5.57843 7.85026L2.24416 5.13378C1.98855 4.92631 1.68137 4.82431 1.37649 4.82431C0.977617 4.82431 0.581036 4.99738 0.309376 5.33092C-0.170868 5.92006 -0.0814772 6.78659 0.50652 7.2657L4.70961 10.6905C5.21509 11.1032 5.94177 11.1032 6.44724 10.6905L10.6171 7.29321C11.2062 6.81295 11.2945 5.94643 10.8154 5.35729C10.5426 5.02375 10.1472 4.85067 9.74828 4.85067Z" fill="#E5E4FF"/>
</svg>
