<svg width="15" height="9" viewBox="0 0 15 9" fill="none" xmlns="http://www.w3.org/2000/svg">
<path d="M8.0853 8.5731L14.7604 1.89791C14.9149 1.74352 15 1.53743 15 1.31767C15 1.09792 14.9149 0.891822 14.7604 0.737433L14.2689 0.245852C13.9487 -0.0740237 13.4282 -0.0740237 13.1084 0.245852L7.50311 5.85117L1.89157 0.239632C1.73706 0.0852432 1.53108 0 1.31145 0C1.09158 0 0.885602 0.0852432 0.730968 0.239632L0.239632 0.731214C0.0851202 0.885724 0 1.0917 0 1.31145C0 1.53121 0.0851202 1.7373 0.239632 1.89169L6.9208 8.5731C7.0758 8.72786 7.28275 8.81285 7.50274 8.81237C7.7236 8.81285 7.93042 8.72786 8.0853 8.5731Z" fill="#CCCCCD"/>
</svg>
