<svg width="19" height="25" viewBox="0 0 19 25" fill="none" xmlns="http://www.w3.org/2000/svg">
<path d="M0.972 18.7067C0.378 18.3467 0 17.6807 0 16.9967V13.0907C0 12.9467 0.0360001 12.8027 0.108 12.6767C0.342 12.2807 0.864 12.1367 1.26 12.3707L10.08 17.5187C10.602 17.8247 10.908 18.3647 10.908 18.9767V23.0267C10.908 23.2067 10.854 23.3867 10.764 23.5487C10.476 24.0167 9.846 24.1787 9.378 23.8907L0.972 18.7067ZM14.13 11.2907C14.652 11.5967 14.958 12.1367 14.958 12.7487V20.9747C14.958 21.2267 14.832 21.4427 14.616 21.5687L12.69 22.6487C12.672 22.6667 12.636 22.6667 12.618 22.6847V18.1307C12.618 17.5367 12.312 16.9967 11.808 16.6907L4.068 12.0647V6.8627C4.068 6.7187 4.104 6.5747 4.176 6.4487C4.41 6.0527 4.932 5.9087 5.328 6.1427L14.13 11.2907ZM17.982 5.2067C18.504 5.5127 18.81 6.0527 18.81 6.6647V18.6707C18.81 18.9227 18.666 19.1387 18.45 19.2647L16.614 20.2547V11.9027C16.614 11.3087 16.308 10.7687 15.804 10.4627L7.884 5.7107V0.832702C7.884 0.688702 7.92 0.544704 7.992 0.418704C8.226 0.022704 8.748 -0.121298 9.144 0.112702L17.982 5.2067Z" fill="#00D395"/>
</svg>
