<svg width="112" height="25" viewBox="0 0 112 25" fill="none" xmlns="http://www.w3.org/2000/svg">
<path d="M109.732 13.6487C109.732 12.2447 108.904 11.1827 107.59 11.1827C106.276 11.1827 105.448 12.2447 105.448 13.6487C105.448 15.0527 106.276 16.1147 107.59 16.1147C108.904 16.1147 109.732 15.0527 109.732 13.6487ZM109.66 10.2467V6.55669C109.66 6.30469 109.822 6.10669 110.056 6.03469L112 5.5127V17.9687H109.84V16.9067C109.3 17.6987 108.31 18.1667 107.086 18.1667C104.566 18.1667 103.108 16.1507 103.108 13.6307C103.108 11.1107 104.584 9.09469 107.086 9.09469C108.328 9.11269 109.21 9.63469 109.66 10.2467ZM96.34 9.3107V10.3727C96.736 9.6347 97.636 9.1127 98.914 9.1127C101.002 9.1127 102.1 10.4987 102.1 12.5687V17.9867H99.76V12.8387C99.76 11.8307 99.328 11.1287 98.284 11.1287C97.15 11.1287 96.52 11.8487 96.52 13.0187V17.9867H94.18V9.3287H96.34V9.3107ZM88.69 18.1847C86.152 18.1847 84.748 17.0867 84.748 14.2787V9.3107H87.088V14.3147C87.088 15.5207 87.628 16.0787 88.672 16.0787C89.716 16.0787 90.256 15.5207 90.256 14.3147V9.3107H92.596V14.2787C92.614 17.0867 91.21 18.1847 88.69 18.1847ZM76.99 13.6487C76.99 15.1967 77.944 16.1147 79.186 16.1147C80.428 16.1147 81.382 15.1967 81.382 13.6487C81.382 12.1007 80.428 11.1827 79.186 11.1827C77.962 11.1827 76.99 12.0827 76.99 13.6487ZM79.186 18.1847C76.414 18.1847 74.632 16.1147 74.632 13.6487C74.632 11.1827 76.396 9.1127 79.186 9.1127C81.958 9.1127 83.74 11.1827 83.74 13.6487C83.74 16.1147 81.976 18.1847 79.186 18.1847ZM67.486 13.6487C67.486 15.0527 68.314 16.1147 69.628 16.1147C70.942 16.1147 71.77 15.0527 71.77 13.6487C71.77 12.2447 70.942 11.1827 69.628 11.1827C68.314 11.1827 67.486 12.2447 67.486 13.6487ZM67.558 17.0507V20.6507C67.558 20.9027 67.396 21.1007 67.162 21.1727L65.218 21.6767V9.3107H67.378V10.3727C67.918 9.5807 68.908 9.1127 70.132 9.1127C72.652 9.1127 74.11 11.1287 74.11 13.6487C74.11 16.1687 72.634 18.1847 70.132 18.1847C68.89 18.1847 68.008 17.6447 67.558 17.0507ZM58.234 13.0547V17.9867H55.894V12.8387C55.894 11.8847 55.552 11.1287 54.508 11.1287C53.41 11.1287 52.816 11.8307 52.816 13.0007V17.9867H50.476V9.3107H52.636V10.3727C53.032 9.6347 53.896 9.1127 55.138 9.1127C56.308 9.1127 57.154 9.58069 57.658 10.3367C58.414 9.49069 59.296 9.1127 60.538 9.1127C62.626 9.1127 63.688 10.5527 63.688 12.5687V17.9867H61.348V12.8387C61.348 11.8847 61.006 11.1287 59.962 11.1287C58.81 11.1287 58.234 11.8487 58.234 13.0547ZM42.628 13.6487C42.628 15.1967 43.582 16.1147 44.824 16.1147C46.066 16.1147 47.02 15.1967 47.02 13.6487C47.02 12.1007 46.066 11.1827 44.824 11.1827C43.582 11.1827 42.628 12.0827 42.628 13.6487ZM44.824 18.1847C42.052 18.1847 40.27 16.1147 40.27 13.6487C40.27 11.1827 42.034 9.1127 44.824 9.1127C47.614 9.1127 49.378 11.1827 49.378 13.6487C49.378 16.1147 47.596 18.1847 44.824 18.1847ZM28.084 12.0827C28.084 8.4107 30.622 5.9807 33.988 5.9807C36.922 5.9807 39.226 7.7087 39.676 10.5707H37.102C36.76 9.0947 35.572 8.26669 33.988 8.26669C31.846 8.26669 30.622 9.76069 30.622 12.0647C30.622 14.3867 31.828 15.8627 33.988 15.8627C35.554 15.8627 36.742 15.0347 37.102 13.5587H39.676C39.226 16.4207 36.922 18.1487 33.988 18.1487C30.622 18.2027 28.084 15.7547 28.084 12.0827Z" fill="#000000"/>
<path d="M0.972 18.7067C0.378 18.3467 0 17.6807 0 16.9967V13.0907C0 12.9467 0.0360001 12.8027 0.108 12.6767C0.342 12.2807 0.864 12.1367 1.26 12.3707L10.08 17.5187C10.602 17.8247 10.908 18.3647 10.908 18.9767V23.0267C10.908 23.2067 10.854 23.3867 10.764 23.5487C10.476 24.0167 9.846 24.1787 9.378 23.8907L0.972 18.7067ZM14.13 11.2907C14.652 11.5967 14.958 12.1367 14.958 12.7487V20.9747C14.958 21.2267 14.832 21.4427 14.616 21.5687L12.69 22.6487C12.672 22.6667 12.636 22.6667 12.618 22.6847V18.1307C12.618 17.5367 12.312 16.9967 11.808 16.6907L4.068 12.0647V6.8627C4.068 6.7187 4.104 6.5747 4.176 6.4487C4.41 6.0527 4.932 5.9087 5.328 6.1427L14.13 11.2907ZM17.982 5.2067C18.504 5.5127 18.81 6.0527 18.81 6.6647V18.6707C18.81 18.9227 18.666 19.1387 18.45 19.2647L16.614 20.2547V11.9027C16.614 11.3087 16.308 10.7687 15.804 10.4627L7.884 5.7107V0.832702C7.884 0.688702 7.92 0.544704 7.992 0.418704C8.226 0.022704 8.748 -0.121298 9.144 0.112702L17.982 5.2067Z" fill="#00D395"/>
</svg>
