<svg width="19" height="24" viewBox="0 0 19 24" fill="none" xmlns="http://www.w3.org/2000/svg">
<path d="M0.972 18.6802C0.378 18.3207 0 17.6556 0 16.9726V13.0721C0 12.9284 0.0360001 12.7846 0.108 12.6587C0.342 12.2633 0.864 12.1195 1.26 12.3532L10.08 17.4939C10.602 17.7994 10.908 18.3387 10.908 18.9498V22.9941C10.908 23.1738 10.854 23.3536 10.764 23.5153C10.476 23.9827 9.846 24.1444 9.378 23.8568L0.972 18.6802ZM14.13 11.2747C14.652 11.5803 14.958 12.1195 14.958 12.7306V20.945C14.958 21.1966 14.832 21.4123 14.616 21.5381L12.69 22.6166C12.672 22.6346 12.636 22.6346 12.618 22.6525V18.105C12.618 17.5118 12.312 16.9726 11.808 16.667L4.068 12.0476V6.85297C4.068 6.70918 4.104 6.56538 4.176 6.43956C4.41 6.04412 4.932 5.90033 5.328 6.13399L14.13 11.2747ZM17.982 5.19932C18.504 5.50489 18.81 6.04412 18.81 6.65525V18.6442C18.81 18.8959 18.666 19.1116 18.45 19.2374L16.614 20.226V11.8858C16.614 11.2927 16.308 10.7534 15.804 10.4479L7.884 5.70261V0.831521C7.884 0.687726 7.92 0.543932 7.992 0.41811C8.226 0.0226718 8.748 -0.121126 9.144 0.112542L17.982 5.19932Z" fill="#00D395"/>
</svg>