<svg width="19" height="18" viewBox="0 0 19 18" fill="none" xmlns="http://www.w3.org/2000/svg">
<g clip-path="url(#clip0)">
<path d="M15.686 7.57205C15.5106 7.57205 15.3425 7.64352 15.2186 7.77072C15.0946 7.89794 15.0251 8.07047 15.0251 8.25036V16.0511C15.0251 16.2093 14.9637 16.3611 14.8546 16.4732C14.7456 16.5851 14.5976 16.6479 14.4434 16.6479H1.90346C1.74997 16.6467 1.60316 16.5833 1.49504 16.4715C1.38692 16.3598 1.32625 16.2086 1.32625 16.0511V3.1811C1.32625 3.02355 1.38692 2.87241 1.49504 2.7606C1.60316 2.64878 1.74997 2.58537 1.90346 2.58417H9.49966C9.67496 2.58417 9.84307 2.51271 9.967 2.3855C10.091 2.2583 10.1606 2.08575 10.1606 1.90586C10.1606 1.72596 10.091 1.55342 9.967 1.42621C9.84307 1.29901 9.67496 1.22754 9.49966 1.22754H1.90346C1.39899 1.22873 0.915511 1.43494 0.558796 1.80104C0.20208 2.16714 0.00116372 2.66334 0 3.1811V16.0511C0.00232528 16.568 0.203755 17.063 0.560344 17.4282C0.916934 17.7933 1.39975 17.9988 1.90346 18H14.4434C14.947 17.9988 15.4299 17.7933 15.7865 17.4282C16.1431 17.063 16.3445 16.568 16.3469 16.0511V8.25036C16.3469 8.07047 16.2772 7.89794 16.1532 7.77072C16.0293 7.64352 15.8612 7.57205 15.686 7.57205Z" fill="#383838" fill-opacity="0.5"/>
<path d="M16.7434 0.820524C16.2289 0.29502 15.5326 0 14.8068 0C14.0811 0 13.3848 0.29502 12.8704 0.820524L7.87821 5.94407C7.80569 6.01902 7.75135 6.1104 7.71959 6.21087L6.26115 10.733C6.2235 10.8519 6.21863 10.9793 6.24709 11.1009C6.27554 11.2225 6.33623 11.3337 6.4224 11.4222C6.50859 11.5106 6.61692 11.5729 6.73542 11.6021C6.85392 11.6313 6.97799 11.6263 7.0939 11.5877L11.5001 10.0908C11.598 10.0582 11.687 10.0025 11.76 9.92803L16.7434 4.79545C17.2555 4.2675 17.5428 3.5529 17.5428 2.80798C17.5428 2.06307 17.2555 1.34848 16.7434 0.820524ZM10.9273 8.84725L7.92667 9.86925L8.92246 6.78971L12.5179 3.10419L14.5183 5.15722L10.9273 8.84725ZM15.8093 3.84129L15.4524 4.20306L13.452 2.15002L13.8045 1.78373C14.0738 1.52893 14.4287 1.39092 14.795 1.39857C15.1611 1.40622 15.5103 1.55894 15.7692 1.82475C16.0284 2.09058 16.1772 2.44892 16.1846 2.82477C16.1921 3.20062 16.0576 3.56487 15.8093 3.84129Z" fill="#383838" fill-opacity="0.5"/>
</g>
<defs>
<clipPath id="clip0">
<rect width="19" height="18" fill="white"/>
</clipPath>
</defs>
</svg>
