<svg width="20" height="20" viewBox="0 0 20 20" fill="none" xmlns="http://www.w3.org/2000/svg">
<rect width="20" height="20" rx="4" fill="#68D2FF"/>
<g clip-path="url(#clip0)">
<path d="M10.6331 11.0738H13.8309C13.8999 11.0738 13.9328 11.0738 13.9361 10.9884C13.9624 10.6754 13.9624 10.3625 13.9361 10.0464C13.9361 9.9863 13.9032 9.96101 13.8375 9.96101H7.47147C7.39259 9.96101 7.37287 9.9863 7.37287 10.0558V10.9568C7.37287 11.0738 7.37287 11.0738 7.49776 11.0738H10.6331ZM13.5778 8.90832C13.5877 8.8862 13.5877 8.86091 13.5778 8.83878C13.5252 8.72813 13.4628 8.62065 13.3872 8.51949C13.2755 8.34879 13.1473 8.19073 12.9994 8.04847C12.9304 7.96312 12.8482 7.88725 12.7562 7.82086C12.3027 7.44784 11.7604 7.18546 11.1787 7.05269C10.8862 6.98946 10.5838 6.95785 10.2847 6.96101H7.46161C7.38273 6.96101 7.37287 6.99262 7.37287 7.05585V8.85142C7.37287 8.92729 7.37287 8.94626 7.47147 8.94626H13.5384C13.5384 8.94626 13.591 8.93678 13.6008 8.90516H13.5778V8.90832ZM13.5778 12.1233C13.4891 12.1138 13.3971 12.1138 13.3083 12.1233H7.47804C7.39916 12.1233 7.37287 12.1233 7.37287 12.2244V13.9789C7.37287 14.0611 7.37287 14.0801 7.47804 14.0801H10.1697C10.2979 14.0896 10.4261 14.0801 10.5542 14.0548C10.9453 14.0263 11.3298 13.9473 11.6947 13.8114C11.8294 13.7671 11.9576 13.7102 12.0792 13.6407H12.1153C12.7463 13.3246 13.259 12.8282 13.5811 12.2213C13.5811 12.2213 13.6173 12.1454 13.5778 12.1233ZM6.31461 14.9937V14.9621V13.7829V13.3846V12.196C6.31461 12.1296 6.31461 12.1201 6.22916 12.1201H5.08874C5.02629 12.1201 5 12.1201 5 12.0379V11.0769H6.2193C6.28832 11.0769 6.31461 11.0769 6.31461 10.9916V10.04C6.31461 9.97998 6.31461 9.96417 6.22916 9.96417H5.08874C5.02629 9.96417 5 9.96417 5 9.88198V8.99368C5 8.93678 5 8.92413 5.08545 8.92413H6.21601C6.29489 8.92413 6.31461 8.92413 6.31461 8.82929V6.10116C6.31461 6.01897 6.31461 6 6.41978 6H10.3636C10.6495 6.00948 10.9355 6.0411 11.2148 6.09168C11.7932 6.196 12.352 6.39515 12.8614 6.67966C13.1999 6.86934 13.5088 7.10327 13.7882 7.36881C13.9952 7.57745 14.1858 7.8019 14.3502 8.04215C14.5145 8.28556 14.6525 8.54478 14.761 8.81665C14.7741 8.8862 14.8431 8.93361 14.9187 8.92413H15.8587C15.9803 8.92413 15.9803 8.92413 15.9836 9.03477V9.86301C15.9836 9.94521 15.9507 9.96417 15.8685 9.96417H15.1422C15.0699 9.96417 15.0469 9.96417 15.0535 10.0558C15.0831 10.3625 15.0831 10.6723 15.0535 10.9821C15.0535 11.0674 15.0535 11.0769 15.1554 11.0769H15.9869C16.023 11.1212 15.9869 11.1686 15.9869 11.2129C15.9934 11.2729 15.9934 11.3298 15.9869 11.3899V12.0032C15.9869 12.0885 15.9606 12.1138 15.8817 12.1138H14.8892C14.8201 12.1012 14.7511 12.1423 14.738 12.2086C14.5013 12.7998 14.1234 13.3309 13.6337 13.7576C13.4562 13.9125 13.2656 14.058 13.0717 14.1939C12.8614 14.3109 12.6576 14.431 12.4407 14.529C12.043 14.6997 11.6256 14.8261 11.1984 14.9083C10.7941 14.9779 10.38 15.0095 9.96923 15.0032H6.31461V14.9937Z" fill="#FEFEFD"/>
</g>
<defs>
<clipPath id="clip0">
<rect width="11" height="9" fill="white" transform="translate(5 6)"/>
</clipPath>
</defs>
</svg>
