<svg width="36" height="36" viewBox="0 0 36 36" fill="none" xmlns="http://www.w3.org/2000/svg">
<rect width="36" height="36" rx="18" fill="#F5AC37"/>
<path d="M19.2388 19.0183H25.0514C25.1753 19.0183 25.2338 19.0183 25.2428 18.8655C25.2903 18.3093 25.2903 17.7499 25.2428 17.193C25.2428 17.0849 25.1857 17.0402 25.0611 17.0402H13.493C13.3498 17.0402 13.3113 17.0849 13.3113 17.2111V18.8117C13.3113 19.0183 13.3113 19.0183 13.5405 19.0183H19.2388ZM24.5937 15.1696C24.6102 15.1288 24.6102 15.0841 24.5937 15.044C24.4966 14.8452 24.3816 14.6555 24.2481 14.4774C24.0471 14.1731 23.8103 13.8927 23.5405 13.6409C23.4131 13.4887 23.2658 13.3521 23.1006 13.2362C22.2732 12.5738 21.2895 12.105 20.2321 11.8693C19.6987 11.7567 19.1535 11.7029 18.6069 11.7074H13.473C13.3299 11.7074 13.3106 11.7612 13.3106 11.8784V15.0705C13.3106 15.2052 13.3106 15.2415 13.4923 15.2415H24.5248C24.5248 15.2415 24.6205 15.2233 24.6398 15.1696H24.5937ZM24.5937 20.8889C24.4312 20.8721 24.2674 20.8721 24.1049 20.8889H13.5026C13.3595 20.8889 13.3113 20.8889 13.3113 21.0689V24.1898C13.3113 24.3336 13.3113 24.3698 13.5026 24.3698H18.3976C18.6317 24.3867 18.8657 24.3711 19.095 24.3252C19.8054 24.2772 20.5041 24.1322 21.1704 23.8933C21.4127 23.8143 21.6467 23.7113 21.8677 23.5877H21.9345C23.082 23.0263 24.0141 22.1444 24.6019 21.0618C24.6019 21.0618 24.6687 20.9245 24.5937 20.8889ZM11.39 25.9879V25.9342V23.8389V23.1286V21.0152C11.39 20.898 11.39 20.8805 11.2372 20.8805H9.16246C9.0475 20.8805 9 20.8805 9 20.7367V19.028H11.2179C11.3418 19.028 11.39 19.028 11.39 18.8752V17.1846C11.39 17.0765 11.39 17.0499 11.2372 17.0499H9.16246C9.0475 17.0499 9 17.0499 9 16.9062V15.3237C9 15.2246 9 15.1981 9.15282 15.1981H11.2083C11.3515 15.1981 11.39 15.1981 11.39 15.0271V10.18C11.39 10.0363 11.39 10 11.5814 10H18.7515C19.2719 10.0194 19.7888 10.0732 20.3003 10.1619C21.3542 10.3451 22.3668 10.6993 23.2926 11.205C23.9067 11.5449 24.4718 11.9554 24.975 12.4281C25.3536 12.7978 25.6951 13.198 25.9979 13.624C26.2988 14.0559 26.5486 14.5176 26.7448 14.9999C26.7689 15.1256 26.8969 15.2104 27.0305 15.189H28.7418C28.9614 15.189 28.9614 15.189 28.971 15.3872V16.8621C28.971 17.0059 28.9139 17.0421 28.7604 17.0421H27.4408C27.3072 17.0421 27.2687 17.0421 27.2783 17.204C27.3306 17.7518 27.3306 18.3015 27.2783 18.8493C27.2783 19.0021 27.2783 19.0202 27.4607 19.0202H28.9703C29.0371 19.1012 28.9703 19.1821 28.9703 19.2637C28.98 19.3679 28.98 19.4735 28.9703 19.5777V20.6662C28.9703 20.819 28.9228 20.8643 28.779 20.8643H26.972C26.846 20.8416 26.7235 20.9174 26.6946 21.0352C26.2643 22.0874 25.576 23.0308 24.6866 23.7871C24.3617 24.0623 24.0202 24.3213 23.6637 24.5602C23.2809 24.7674 22.9085 24.983 22.5162 25.154C21.7941 25.4596 21.0369 25.6849 20.2597 25.828C19.5217 25.9523 18.7735 26.0086 18.0225 25.9989H11.3873V25.9899L11.39 25.9879Z" fill="white"/>
</svg>
