<svg width="29" height="27" viewBox="0 0 29 27" fill="none" xmlns="http://www.w3.org/2000/svg">
<path d="M25.8527 10.2494C25.5636 10.2494 25.2866 10.3642 25.0823 10.5685C24.8781 10.7729 24.7634 11.05 24.7634 11.339V23.8694C24.7634 24.1236 24.6622 24.3674 24.4825 24.5474C24.3028 24.7271 24.0589 24.8281 23.8047 24.8281H3.13718C2.8842 24.8262 2.64224 24.7243 2.46403 24.5448C2.28584 24.3652 2.18584 24.1224 2.18585 23.8694V3.19611C2.18584 2.94304 2.28584 2.70026 2.46403 2.52066C2.64224 2.34104 2.8842 2.23919 3.13718 2.23726H15.6568C15.9457 2.23726 16.2228 2.12247 16.427 1.91812C16.6313 1.7138 16.7461 1.43664 16.7461 1.14767C16.7461 0.858699 16.6313 0.581537 16.427 0.37721C16.2228 0.172872 15.9457 0.058075 15.6568 0.058075H3.13718C2.30573 0.0599953 1.50889 0.391222 0.920974 0.979294C0.333056 1.56738 0.00191798 2.36443 0 3.19611V23.8694C0.00383238 24.6997 0.335816 25.4948 0.923525 26.0815C1.51124 26.668 2.30698 26.9981 3.13718 27H23.8047C24.6348 26.9981 25.4306 26.668 26.0184 26.0815C26.6061 25.4948 26.9381 24.6997 26.9419 23.8694V11.339C26.9419 11.05 26.827 10.7729 26.6228 10.5685C26.4185 10.3642 26.1415 10.2494 25.8527 10.2494Z" fill="#AEAEAE"/>
<path d="M18.0847 9.46756L14.2916 5.73602L13 6.99776L18.0847 12L29 1.26174L27.7175 0L18.0847 9.46756Z" fill="#AEAEAE"/>
</svg>
