<svg width="32" height="30" viewBox="0 0 32 30" fill="none" xmlns="http://www.w3.org/2000/svg">
<path d="M15.2038 0.191584C15.7023 -0.0638614 16.4609 -0.0638614 16.9594 0.191584L22.0463 2.79817C22.3466 2.95202 22.5115 3.18127 22.541 3.41792H22.5458V16.52C22.5392 16.7781 22.3728 17.0345 22.0463 17.2019L16.9594 19.8084C16.4609 20.0639 15.7023 20.0639 15.2038 19.8084L10.1169 17.2019C9.79181 17.0353 9.6358 16.777 9.62807 16.52C9.6273 16.4947 9.62721 16.4736 9.62794 16.4561L9.62791 3.50208C9.6274 3.48789 9.62735 3.47372 9.62777 3.45961L9.62807 3.41792L9.63035 3.41791C9.65294 3.17866 9.81035 2.95527 10.1169 2.79817L15.2038 0.191584ZM21.745 10.7275L16.9594 13.1797C16.4609 13.4352 15.7023 13.4352 15.2038 13.1797L10.4286 10.733V16.4941L15.2038 18.928C15.4735 19.0678 15.7533 19.2041 16.027 19.2214L16.0816 19.2231C16.3668 19.2241 16.6436 19.0836 16.9243 18.9506L21.745 16.4731V10.7275ZM8.80069 16.2352C8.80069 16.737 8.86083 17.067 8.98023 17.2995C9.07919 17.4922 9.22769 17.6394 9.49882 17.8186L9.5143 17.8287C9.5738 17.8677 9.63935 17.9084 9.71914 17.9562L9.81323 18.0122L10.1022 18.1814L9.68776 18.8461L9.36437 18.6566L9.31001 18.6242C9.2165 18.5681 9.139 18.5202 9.06671 18.4728C8.29397 17.9673 8.00577 17.4164 8.00009 16.27L8 16.2352H8.80069ZM15.6812 7.21575C15.6441 7.22809 15.6094 7.24236 15.5778 7.25858L10.4909 9.86517C10.4855 9.86791 10.4804 9.87061 10.4756 9.87328L10.4713 9.87572L10.4793 9.88014L10.4909 9.88625L15.5778 12.4928C15.6094 12.5091 15.6441 12.5233 15.6812 12.5357V7.21575ZM16.4821 7.21575V12.5357C16.5191 12.5233 16.5538 12.5091 16.5855 12.4928L21.6724 9.88625C21.6777 9.88352 21.6828 9.88081 21.6877 9.87814L21.692 9.87572L21.684 9.87128L21.6724 9.86517L16.5855 7.25858C16.5538 7.24236 16.5191 7.22809 16.4821 7.21575ZM21.745 4.34734L17.1818 6.68562L21.745 9.02391V4.34734ZM10.4286 4.35281V9.01844L14.9813 6.68562L10.4286 4.35281ZM16.5855 0.878462C16.3209 0.742911 15.8423 0.742911 15.5778 0.878462L10.4909 3.48506C10.4855 3.4878 10.4804 3.4905 10.4756 3.49317L10.4713 3.49559L10.4793 3.50003L10.4909 3.50614L15.5778 6.11273C15.8423 6.24828 16.3209 6.24828 16.5855 6.11273L21.6724 3.50614C21.6777 3.50341 21.6828 3.5007 21.6877 3.49802L21.692 3.49559L21.684 3.49116L21.6724 3.48506L16.5855 0.878462ZM22.4968 1.1643L22.8202 1.35379L22.8746 1.38616C22.9681 1.44216 23.0456 1.49027 23.1179 1.53755C23.8906 2.04297 24.1788 2.59402 24.1844 3.74033L24.1846 3.77525H23.3839C23.3839 3.27325 23.3238 2.94331 23.2044 2.71086C23.1054 2.5182 22.9569 2.37097 22.6858 2.19181L22.6703 2.18164C22.6108 2.14272 22.5452 2.10195 22.4654 2.05403L22.3714 1.99813L22.0824 1.82897L22.4968 1.1643Z" fill="#0510FF"/>
<path d="M1.91824 29.9344V25.9424H3.06142V25.2115H1.91824V24.6867C1.91824 24.0933 2.18631 23.7965 2.72238 23.7965C2.87736 23.7965 3.04212 23.8215 3.21648 23.8715V23.0937C3.00333 23.0312 2.7676 23 2.50922 23C2.01195 23 1.626 23.1374 1.35149 23.4123C1.07698 23.6872 0.939725 24.087 0.939725 24.6118V25.2115H0V25.9424H0.939725V29.9344H1.91824ZM5.89038 30C6.26504 30 6.59279 29.925 6.87374 29.7751C7.15469 29.6252 7.36626 29.4096 7.50836 29.1285V29.9344H8.47718V25.2115H7.50836V25.9799C7.35974 25.6988 7.14667 25.4817 6.86889 25.3286C6.59121 25.1756 6.26504 25.0991 5.89038 25.0991C5.47059 25.0991 5.09593 25.2021 4.76659 25.4083C4.43716 25.6145 4.18045 25.905 3.99639 26.2798C3.81232 26.6546 3.72029 27.0857 3.72029 27.573C3.72029 28.0602 3.81065 28.4866 3.99154 28.8521C4.17234 29.2175 4.42587 29.5002 4.75204 29.7001C5.07822 29.9 5.45763 30 5.89038 30ZM6.12293 29.2503C5.67722 29.2503 5.33007 29.1035 5.08148 28.8099C4.83279 28.5163 4.70841 28.104 4.70841 27.573C4.70841 27.0357 4.83279 26.6156 5.08148 26.3126C5.33007 26.0096 5.67405 25.8581 6.11323 25.8581C6.55885 25.8581 6.90283 26.0049 7.14499 26.2985C7.38724 26.5921 7.50836 27.0107 7.50836 27.5542C7.50836 28.0915 7.38724 28.5085 7.14499 28.8052C6.90283 29.102 6.56212 29.2503 6.12293 29.2503ZM10.8798 29.9344V27.245C10.8798 26.8264 11.0041 26.4922 11.2528 26.2423C11.5015 25.9924 11.8325 25.8675 12.2459 25.8675C12.6076 25.8675 12.8707 25.9612 13.0355 26.1486C13.2001 26.336 13.2825 26.6359 13.2825 27.0482V29.9344H14.261V26.992C14.261 25.73 13.6764 25.0991 12.5074 25.0991C12.1328 25.0991 11.7986 25.1787 11.5047 25.338C11.2108 25.4973 10.9864 25.7269 10.8313 26.0268L10.7442 25.2115H9.83352C9.88518 25.6051 9.91101 26.0486 9.91101 26.5422V29.9344H10.8798ZM17.5356 30C17.8068 30 18.0491 29.9657 18.2622 29.897V29.1285C18.0878 29.1785 17.9167 29.2035 17.7487 29.2035C17.4903 29.2035 17.2885 29.1363 17.1432 29.002C16.9979 28.8677 16.9252 28.6381 16.9252 28.3133V25.9424H18.2719V25.2115H16.9252V23.7028L15.9468 24.0308V25.2115H14.9972V25.9424H15.9468V28.3882C15.9468 28.913 16.0856 29.3128 16.3633 29.5877C16.6411 29.8626 17.0318 30 17.5356 30ZM21.2752 30C21.7467 30 22.1633 29.9 22.525 29.7001C22.8867 29.5002 23.166 29.216 23.363 28.8474C23.56 28.4788 23.6585 28.0477 23.6585 27.5542C23.6585 27.0607 23.56 26.6281 23.363 26.2564C23.166 25.8846 22.8867 25.5988 22.525 25.3989C22.1633 25.199 21.7467 25.0991 21.2752 25.0991C20.7973 25.0991 20.3775 25.199 20.0158 25.3989C19.6541 25.5988 19.3747 25.8846 19.1777 26.2564C18.9808 26.6281 18.8822 27.0607 18.8822 27.5542C18.8822 28.0477 18.9808 28.4788 19.1777 28.8474C19.3747 29.216 19.6541 29.5002 20.0158 29.7001C20.3775 29.9 20.7973 30 21.2752 30ZM21.2655 29.2503C20.8198 29.2503 20.4759 29.1066 20.2337 28.8193C19.9915 28.5319 19.8704 28.1102 19.8704 27.5542C19.8704 27.0107 19.9931 26.5921 20.2385 26.2985C20.484 26.0049 20.8295 25.8581 21.2752 25.8581C21.7144 25.8581 22.0551 26.0049 22.2973 26.2985C22.5395 26.5921 22.6606 27.0107 22.6606 27.5542C22.6606 28.1102 22.5411 28.5319 22.3021 28.8193C22.0632 29.1066 21.7176 29.2503 21.2655 29.2503ZM25.7705 29.9344V27.2637C25.7705 26.8327 25.8803 26.4922 26.0999 26.2423C26.3195 25.9924 26.6166 25.8675 26.9913 25.8675C27.3142 25.8675 27.5483 25.9612 27.6936 26.1486C27.8389 26.336 27.9116 26.6328 27.9116 27.0388V29.9344H28.8901V27.2637C28.8901 26.8327 28.9983 26.4922 29.2147 26.2423C29.431 25.9924 29.7265 25.8675 30.1012 25.8675C30.4241 25.8675 30.6582 25.9612 30.8035 26.1486C30.9488 26.336 31.0215 26.6328 31.0215 27.0388V29.9344H32V26.992C32 25.73 31.4575 25.0991 30.3724 25.0991C30.0107 25.0991 29.6861 25.1803 29.3987 25.3427C29.1113 25.5051 28.8934 25.7269 28.7448 26.008C28.5123 25.4021 28.0182 25.0991 27.2625 25.0991C26.9072 25.0991 26.5972 25.1772 26.3324 25.3333C26.0676 25.4895 25.8642 25.7113 25.7221 25.9987L25.6349 25.2115H24.7242C24.7758 25.6051 24.8017 26.0486 24.8017 26.5422V29.9344H25.7705Z" fill="#0510FF"/>
</svg>
