<svg width="36" height="36" viewBox="0 0 36 36" fill="none" xmlns="http://www.w3.org/2000/svg">
<rect width="36" height="36" rx="18" fill="#13B5EC"/>
<path fill-rule="evenodd" clip-rule="evenodd" d="M19.4 14.6281L23.6 12.3065V16.9497L19.4 14.6281ZM23.6 24.5779L18 27.6734L12.4 24.5779V19.1608L18 22.2563L23.6 19.1608V24.5779ZM12.4 12.3065L16.6 14.6281L12.4 16.9497V12.3065ZM18.7 15.7337L22.9 18.0553L18.7 20.3769V15.7337ZM17.3 20.3769L13.1 18.0553L17.3 15.7337V20.3769ZM22.9 11.201L18 13.8543L13.1 11.201L18 8.43719L22.9 11.201ZM11 10.7588V25.2412L18 29L25 25.2412V10.7588L18 7L11 10.7588Z" fill="white"/>
</svg>
