<svg width="17" height="20" viewBox="0 0 17 20" fill="none" xmlns="http://www.w3.org/2000/svg">
<path d="M7.20382 0.191584C7.70234 -0.0638614 8.46088 -0.0638614 8.9594 0.191584L14.0463 2.79817C14.3466 2.95202 14.5115 3.18127 14.541 3.41792H14.5458V16.52C14.5392 16.7781 14.3728 17.0345 14.0463 17.2019L8.9594 19.8084C8.46088 20.0639 7.70234 20.0639 7.20382 19.8084L2.11691 17.2019C1.79181 17.0353 1.6358 16.777 1.62807 16.52C1.6273 16.4947 1.62721 16.4736 1.62794 16.4561L1.62791 3.50208C1.6274 3.48789 1.62735 3.47372 1.62777 3.45961L1.62807 3.41792L1.63035 3.41791C1.65294 3.17866 1.81035 2.95527 2.11691 2.79817L7.20382 0.191584ZM13.745 10.7275L8.9594 13.1797C8.46088 13.4352 7.70234 13.4352 7.20382 13.1797L2.42865 10.733V16.4941L7.20382 18.928C7.47346 19.0678 7.75333 19.2041 8.02698 19.2214L8.08162 19.2231C8.36677 19.2241 8.64361 19.0836 8.92434 18.9506L13.745 16.4731V10.7275ZM0.800688 16.2352C0.800688 16.737 0.860826 17.067 0.980228 17.2995C1.07919 17.4922 1.22769 17.6394 1.49882 17.8186L1.5143 17.8287C1.5738 17.8677 1.63935 17.9084 1.71914 17.9562L1.81323 18.0122L2.10217 18.1814L1.68776 18.8461L1.36437 18.6566L1.31001 18.6242C1.2165 18.5681 1.139 18.5202 1.06671 18.4728C0.293967 17.9673 0.00577266 17.4164 8.60565e-05 16.27L0 16.2352H0.800688ZM7.68116 7.21575C7.64412 7.22809 7.60941 7.24236 7.57777 7.25858L2.49086 9.86517C2.48552 9.86791 2.48042 9.87061 2.47558 9.87328L2.47127 9.87572L2.47925 9.88014L2.49086 9.88625L7.57777 12.4928C7.60941 12.5091 7.64412 12.5233 7.68116 12.5357V7.21575ZM8.48208 7.21575V12.5357C8.51912 12.5233 8.55382 12.5091 8.58546 12.4928L13.6724 9.88625C13.6777 9.88352 13.6828 9.88081 13.6877 9.87814L13.692 9.87572L13.684 9.87128L13.6724 9.86517L8.58546 7.25858C8.55382 7.24236 8.51912 7.22809 8.48208 7.21575ZM13.745 4.34734L9.18179 6.68562L13.745 9.02391V4.34734ZM2.42865 4.35281V9.01844L6.98132 6.68562L2.42865 4.35281ZM8.58546 0.878462C8.32093 0.742911 7.84231 0.742911 7.57777 0.878462L2.49086 3.48506C2.48552 3.4878 2.48042 3.4905 2.47558 3.49317L2.47127 3.49559L2.47925 3.50003L2.49086 3.50614L7.57777 6.11273C7.84231 6.24828 8.32093 6.24828 8.58546 6.11273L13.6724 3.50614C13.6777 3.50341 13.6828 3.5007 13.6877 3.49802L13.692 3.49559L13.684 3.49116L13.6724 3.48506L8.58546 0.878462ZM14.4968 1.1643L14.8202 1.35379L14.8746 1.38616C14.9681 1.44216 15.0456 1.49027 15.1179 1.53755C15.8906 2.04297 16.1788 2.59402 16.1844 3.74033L16.1846 3.77525H15.3839C15.3839 3.27325 15.3238 2.94331 15.2044 2.71086C15.1054 2.5182 14.9569 2.37097 14.6858 2.19181L14.6703 2.18164C14.6108 2.14272 14.5452 2.10195 14.4654 2.05403L14.3714 1.99813L14.0824 1.82897L14.4968 1.1643Z" fill="#0510FF"/>
</svg>