<svg width="24" height="24" viewBox="0 0 24 24" fill="none" xmlns="http://www.w3.org/2000/svg">
<path d="M0 12C0 5.37258 5.37258 0 12 0C18.6274 0 24 5.37258 24 12C24 18.6274 18.6274 24 12 24C5.37258 24 0 18.6274 0 12Z" fill="white"/>
<path fill-rule="evenodd" clip-rule="evenodd" d="M13.125 9.24121L16.5 7.34171V11.1407L13.125 9.24121ZM16.5 17.3819L12 19.9146L7.5 17.3819V12.9498L12 15.4824L16.5 12.9498V17.3819ZM7.5 7.34171L10.875 9.24121L7.5 11.1407V7.34171ZM12.5625 10.1457L15.9375 12.0452L12.5625 13.9447V10.1457ZM11.4375 13.9447L8.0625 12.0452L11.4375 10.1457V13.9447ZM15.9375 6.43719L12 8.60804L8.0625 6.43719L12 4.17588L15.9375 6.43719ZM6.375 6.07538V17.9246L12 21L17.625 17.9246V6.07538L12 3L6.375 6.07538Z" fill="#0510FF"/>
</svg>