<svg width="18" height="18" viewBox="0 0 18 18" fill="none" xmlns="http://www.w3.org/2000/svg">
<path d="M9.0002 5.66699C8.93389 5.66699 8.87028 5.69332 8.8234 5.74021C8.77652 5.78709 8.75018 5.85068 8.75018 5.91698C8.75018 6.00032 8.91687 6.08366 9.0002 6.08366C9.0444 6.08366 9.08679 6.06609 9.11805 6.03483C9.1493 6.00357 9.16685 5.96118 9.16685 5.91698C9.16685 5.75032 9.08353 5.66699 9.0002 5.66699Z" stroke="white" stroke-width="1.5" stroke-linecap="round" stroke-linejoin="round"/>
<path d="M16.5 9C16.5 4.85786 13.1421 1.5 9 1.5C4.85786 1.5 1.5 4.85786 1.5 9C1.5 13.1421 4.85786 16.5 9 16.5C13.1421 16.5 16.5 13.1421 16.5 9Z" stroke="white" stroke-width="1.5" stroke-linecap="round" stroke-linejoin="round"/>
<path d="M9 9V13.1667" stroke="white" stroke-width="1.5" stroke-linecap="round" stroke-linejoin="round"/>
</svg>
