<svg width="15" height="15" viewBox="0 0 15 15" fill="none" xmlns="http://www.w3.org/2000/svg">
<path d="M7.5 0C3.35814 0 0 3.35814 0 7.5C0 11.6419 3.35814 15 7.5 15C11.6419 15 15 11.6419 15 7.5C15 3.35814 11.6419 0 7.5 0ZM9.0625 11.6245C8.6756 11.7758 8.36806 11.8924 8.1374 11.9717C7.90675 12.0511 7.64137 12.0908 7.33631 12.0908C6.87004 12.0908 6.50546 11.9767 6.24504 11.7485C5.9871 11.5228 5.85814 11.2326 5.85814 10.8805C5.85814 10.744 5.86806 10.6052 5.8879 10.4638C5.90526 10.3199 5.9375 10.1612 5.97966 9.98016L6.46329 8.27381C6.50546 8.11012 6.54266 7.95635 6.57242 7.81002C6.60218 7.66369 6.61458 7.52976 6.61458 7.40823C6.61458 7.19246 6.56994 7.03869 6.48065 6.95437C6.38889 6.86756 6.21776 6.8254 5.96478 6.8254C5.84077 6.8254 5.71181 6.84524 5.58036 6.88244C5.44891 6.92212 5.3373 6.95933 5.24306 6.99405L5.37202 6.46825C5.687 6.33929 5.98958 6.23016 6.27976 6.13839C6.56746 6.04663 6.84276 5.9995 7.09822 5.9995C7.562 5.9995 7.92163 6.11359 8.17212 6.33681C8.42262 6.56002 8.54911 6.85268 8.54911 7.20982C8.54911 7.28423 8.54167 7.41568 8.52431 7.60169C8.50695 7.7877 8.4747 7.95883 8.42758 8.11756L7.94643 9.81895C7.90675 9.95536 7.87202 10.1116 7.83978 10.2852C7.81002 10.4588 7.79514 10.5928 7.79514 10.682C7.79514 10.9077 7.84474 11.064 7.94643 11.1458C8.04564 11.2277 8.22173 11.2674 8.47222 11.2674C8.58879 11.2674 8.72024 11.2475 8.86905 11.2078C9.01538 11.1657 9.12202 11.131 9.18899 11.0987L9.0625 11.6245ZM8.97569 4.71726C8.75248 4.9256 8.48214 5.02976 8.16716 5.02976C7.85218 5.02976 7.57937 4.9256 7.35367 4.71726C7.12798 4.50893 7.01637 4.25595 7.01637 3.96081C7.01637 3.66567 7.13046 3.41022 7.35367 3.19941C7.57937 2.98859 7.85218 2.88443 8.16716 2.88443C8.48214 2.88443 8.75248 2.98859 8.97569 3.19941C9.20139 3.41022 9.313 3.66567 9.313 3.96081C9.313 4.25595 9.20139 4.50893 8.97569 4.71726Z" fill="#CFCFCF"/>
</svg>
