<svg width="32" height="32" viewBox="0 0 32 32" fill="none" xmlns="http://www.w3.org/2000/svg">
<circle cx="15" cy="16" r="14" fill="white"/>
<path d="M13.312 2.10074C6.37597 2.93428 1 8.83933 1 16C1 16.2392 1.006 16.4769 1.01785 16.7132H1.024C1.024 16.7603 1.02455 16.8073 1.02563 16.8542C1.04135 17.1153 1.06422 17.3745 1.09405 17.6315C1.54115 20.5358 4.0757 22.784 7.168 22.784C10.5794 22.784 13.312 20.0479 13.312 16.7132V2.10074Z" fill="#003DC6"/>
<path d="M6.48574 27.1143C8.84486 28.9243 11.7968 30 15 30C22.732 30 29 23.732 29 16C29 13.7987 28.4919 11.7161 27.5867 9.86294C26.185 11.9415 23.8167 13.312 21.12 13.312C19.8775 13.312 18.7047 13.0211 17.664 12.5039V16.7132C17.664 22.4876 12.9466 27.136 7.168 27.136C6.93884 27.136 6.71134 27.1287 6.48574 27.1143Z" fill="#003DC6"/>
<path d="M24.5626 5.77468C24.407 7.57177 22.9124 8.96002 21.12 8.96002C19.2257 8.96002 17.664 7.40937 17.664 5.46426V2.25316C20.3021 2.76139 22.6766 4.01018 24.5626 5.77468Z" fill="#003DC6"/>
</svg>
