<svg width="8" height="8" viewBox="0 0 8 8" fill="none" xmlns="http://www.w3.org/2000/svg">
<path d="M5.6875 2.68847C5.96364 2.68847 6.1875 2.46462 6.1875 2.18847C6.1875 1.91233 5.96364 1.68848 5.6875 1.68848C5.41136 1.68848 5.1875 1.91233 5.1875 2.18847C5.1875 2.46462 5.41136 2.68847 5.6875 2.68847Z" fill="white"/>
<path d="M7.91369 2.59378C7.74681 2.16888 7.44081 1.5558 6.93064 1.04806C6.42229 0.542058 5.81571 0.244809 5.39637 0.0845285C4.936 -0.0914239 4.41286 0.0194819 4.06364 0.367059L2.83649 1.58846C2.47272 1.95051 2.36788 2.5076 2.57558 2.9747C2.63999 3.11958 2.71004 3.26128 2.78488 3.39819L0.0915309 6.09152C0.0329217 6.15013 0 6.22961 0 6.3125V7.6875C0 7.86009 0.139906 8 0.312499 8H1.68749C1.86009 8 1.99999 7.86009 1.99999 7.6875V7.125L2.56249 7.12499C2.73508 7.12499 2.87499 6.98508 2.87499 6.81249V6.25H3.43749C3.61008 6.25 3.74999 6.1101 3.74999 5.93751C3.74999 5.76491 3.61008 5.62501 3.43749 5.62501H2.56249C2.3899 5.62501 2.24999 5.76491 2.24999 5.93751V6.49999L1.68749 6.5C1.5149 6.5 1.37499 6.63991 1.37499 6.8125V7.375H0.624998V6.44194L3.39616 3.6708C3.49797 3.56898 3.51705 3.41081 3.44238 3.28772C3.33408 3.10922 3.2346 2.91847 3.14671 2.72077C3.0436 2.48888 3.09613 2.21186 3.27742 2.03141L4.50456 0.810026C4.67976 0.635667 4.94223 0.580058 5.17328 0.668339C5.53612 0.807026 6.05905 1.06231 6.48977 1.49102C6.92313 1.92233 7.18696 2.453 7.33196 2.82222C7.42244 3.05266 7.36746 3.31445 7.19188 3.4892L5.94991 4.72535C5.76906 4.90534 5.49912 4.95796 5.26217 4.85942C5.06675 4.77814 4.87748 4.68157 4.69967 4.57243C4.55259 4.48215 4.36015 4.52821 4.26987 4.67531C4.17959 4.8224 4.22564 5.01484 4.37273 5.10512C4.57823 5.23124 4.79673 5.34273 5.02214 5.43648C5.4931 5.6324 6.03034 5.5271 6.3908 5.16834L7.63277 3.9322C7.98503 3.58159 8.0953 3.05624 7.91369 2.59378Z" fill="white"/>
</svg>
