<svg width="16" height="20" viewBox="0 0 16 20" fill="none" xmlns="http://www.w3.org/2000/svg">
<path d="M13.3824 7.5H12.7451V5C12.7451 2.2425 10.4586 0 7.64706 0C4.83549 0 2.54902 2.2425 2.54902 5V7.5H1.91176C0.85817 7.5 0 8.34083 0 9.375V18.125C0 19.1592 0.85817 20 1.91176 20H13.3824C14.4359 20 15.2941 19.1592 15.2941 18.125V9.375C15.2941 8.34083 14.4359 7.5 13.3824 7.5ZM4.24837 5C4.24837 3.16167 5.77268 1.66667 7.64706 1.66667C9.52144 1.66667 11.0458 3.16167 11.0458 5V7.5H4.24837V5ZM8.49673 13.935V15.8333C8.49673 16.2933 8.11693 16.6667 7.64706 16.6667C7.17719 16.6667 6.79739 16.2933 6.79739 15.8333V13.935C6.29183 13.6458 5.94771 13.1142 5.94771 12.5C5.94771 11.5808 6.70987 10.8333 7.64706 10.8333C8.58425 10.8333 9.34641 11.5808 9.34641 12.5C9.34641 13.1142 9.00229 13.6458 8.49673 13.935Z" fill="rgba(124,133,155,0.8)" fill-opacity="0.5"/>
</svg>
