<svg width="9" height="10" viewBox="0 0 9 10" fill="none" xmlns="http://www.w3.org/2000/svg">
<path d="M9 5.31193V9.0626C9 9.31122 8.89843 9.54965 8.71764 9.72544C8.53684 9.90124 8.29163 10 8.03595 10H0.964047C0.708366 10 0.463157 9.90124 0.282363 9.72544C0.101569 9.54965 0 9.31122 0 9.0626V5.31193C0 5.18883 0.0249358 5.06693 0.0733837 4.9532C0.121832 4.83947 0.192843 4.73613 0.282363 4.64909C0.371883 4.56204 0.478159 4.49299 0.595122 4.44588C0.712086 4.39877 0.837447 4.37453 0.964047 4.37453H1.44663V2.96897C1.44663 2.18155 1.76832 1.42638 2.34094 0.869591C2.91356 0.312801 3.6902 0 4.5 0C5.3098 0 6.08644 0.312801 6.65906 0.869591C7.23168 1.42638 7.55337 2.18155 7.55337 2.96897V4.37453H8.03595C8.16255 4.37453 8.28791 4.39877 8.40488 4.44588C8.52184 4.49299 8.62812 4.56204 8.71764 4.64909C8.80716 4.73613 8.87817 4.83947 8.92662 4.9532C8.97506 5.06693 9 5.18883 9 5.31193ZM5.94552 2.96789C5.94552 2.59511 5.79322 2.2376 5.52213 1.97401C5.25105 1.71042 4.88337 1.56233 4.5 1.56233C4.11663 1.56233 3.74895 1.71042 3.47787 1.97401C3.20678 2.2376 3.05448 2.59511 3.05448 2.96789V4.37345H5.94552V2.96789Z" fill="white" fill-opacity="0.5"/>
</svg>
