<?xml version="1.0" encoding="UTF-8"?>
<svg width="353px" height="79px" viewBox="0 0 353 79" version="1.1" xmlns="http://www.w3.org/2000/svg" xmlns:xlink="http://www.w3.org/1999/xlink">
    <title>tranche-logo</title>
    <defs>
        <path d="M24.3,78 C26.2,78 31.3,77.3 31.3,76.4 L31.3,62.8 C30.5,63.2 27,63.3 25,63.3 C19.9,63.3 16,59.7 16,53.8 L16,35 L28.7,35 L29.7,22 L16,22 L16,9.4 L0,10.4 L0,56.8 C0,71.1 12,78 24.3,78 Z M54.3,78 L54.3,48.7 C54.3,42.3 56.7,36.9 64.2,36.9 C67.4,36.9 72.5,37.6 74.6,38.6 L78.6,24.7 C74.7,22.3 67.9,21.3 60.7,21.3 C48.5,21.3 38.3,30.6 38.3,43.6 L38.3,78 L54.3,78 Z M103.6,78.9 C113,78.9 118.2,76.6 124.1,74.1 L124.1,43.6 C124.1,30.6 113.6,21.3 100.9,21.3 C97.2,21.3 89.4,21.8 82.8,25.1 L87.9,36.3 C92.1,34.8 97,34.5 100.1,34.5 C106.3,34.6 108.2,37.3 108.7,41.5 C107.2,41.3 105.5,41.2 103.6,41.2 C94.4,41.2 77.6,44.6 77.6,59.2 C77.6,71.6 86.5,78.9 103.6,78.9 Z M103.6,65.5 C97,65.5 92.6,63.3 92.6,59.2 C92.6,54.8 97.7,53.1 103.7,53.1 C105.4,53.1 107.2,53.2 108.9,53.3 L108.9,65.2 C106.8,65.5 105.5,65.5 103.6,65.5 Z M147.1,78 L147.1,38 C149.9,37.3 152.7,36.8 155,36.8 C161.9,36.8 165.8,41.6 165.8,47.9 L165.8,78 L181.8,78 L181.8,43.7 C181.8,29.9 168.3,21.3 156,21.3 C145.7,21.3 137.3,24.1 131.1,26.6 L131.1,78 L147.1,78 Z M215.2,78.7 C227.5,78.7 233,73.5 237.1,69 L225.2,58.6 C223.4,60.2 221,63.9 215.2,63.9 C206.9,63.9 203.7,56.8 203.7,49.9 C203.7,42.8 206.9,36 215.3,36 C219.7,36 222.2,37.8 225.4,41.1 L236.4,30.2 C231.4,24.1 223,21.3 215.2,21.3 C195.9,21.3 186.8,35 186.8,49.9 C186.8,65 195.9,78.7 215.2,78.7 Z M258.1,78 L258.1,38 C260.9,37.3 263.7,36.8 266,36.8 C272.9,36.8 276.8,41.6 276.8,47.9 L276.8,78 L292.8,78 L292.8,43.7 C292.8,29.9 279.3,21.3 267,21.3 C263.9,21.3 260.9,21.6 258.1,22 L258.1,0.5 L242.1,1.5 L242.1,78 L258.1,78 Z M345.6,73.9 L337.9,62.3 C333.8,64.1 332.1,64.6 327,64.6 C320.3,64.6 316.5,60.4 315,55.3 L351.9,55.3 C353.1,40.4 346,21.3 326.1,21.3 C306.8,21.3 297.8,35 297.8,49.9 C297.8,65 306.7,78.9 326.4,78.9 C333,79 340.1,77.6 345.6,73.9 Z M335.2,44.2 L314.8,44.2 C316,39.5 318.9,35.8 325.1,35.8 C333.644928,35.8 335.118336,43.7201008 335.196572,44.1792371 L335.2,44.2 L335.2,44.2 Z" id="path-1"></path>
    </defs>
    <g id="Page-1" stroke="none" stroke-width="1" fill="none" fill-rule="evenodd">
        <g id="tranche-logo" fill-rule="nonzero">
            <g id="tranche">
                <use fill="#000000" xlink:href="#path-1"></use>
                <use fill="#FFFFFF" xlink:href="#path-1"></use>
            </g>
        </g>
    </g>
</svg>