<svg width="139" height="31" viewBox="0 0 139 31" fill="none" xmlns="http://www.w3.org/2000/svg">
<path d="M9.56856 30.4114C10.3167 30.4114 12.3249 30.1367 12.3249 29.7835V24.4468C12.0099 24.6038 10.6317 24.643 9.84419 24.643C7.83598 24.643 6.30028 23.2304 6.30028 20.9152V13.538H11.3011L11.6949 8.43671H6.30028V3.4924L0 3.88481V22.0924C0 27.7038 4.72521 30.4114 9.56856 30.4114ZM21.3816 30.4114V18.9139C21.3816 16.4025 22.3266 14.2835 25.2799 14.2835C26.5399 14.2835 28.5482 14.5582 29.3751 14.9506L30.9501 9.4962C29.4144 8.55443 26.7368 8.16203 23.9017 8.16203C19.0977 8.16203 15.0813 11.8114 15.0813 16.9127V30.4114H21.3816ZM40.7943 30.7646C44.4958 30.7646 46.5433 29.862 48.8666 28.881V16.9127C48.8666 11.8114 44.732 8.16203 39.7312 8.16203C38.2742 8.16203 35.2028 8.35823 32.604 9.65316L34.6122 14.0481C36.266 13.4595 38.1955 13.3418 39.4161 13.3418C41.8575 13.381 42.6057 14.4405 42.8025 16.0886C42.2119 16.0101 41.5425 15.9709 40.7943 15.9709C37.1717 15.9709 30.5564 17.3051 30.5564 23.0342C30.5564 27.9 34.0609 30.7646 40.7943 30.7646ZM40.7943 25.5063C38.1955 25.5063 36.4629 24.643 36.4629 23.0342C36.4629 21.3076 38.4711 20.6405 40.8337 20.6405C41.5031 20.6405 42.2119 20.6797 42.8813 20.719V25.3886C42.0544 25.5063 41.5425 25.5063 40.7943 25.5063ZM57.9232 30.4114V14.7152C59.0258 14.4405 60.1283 14.2443 61.034 14.2443C63.751 14.2443 65.2867 16.1278 65.2867 18.6V30.4114H71.587V16.9519C71.587 11.5367 66.2711 8.16203 61.4278 8.16203C57.372 8.16203 54.0643 9.26076 51.6229 10.2418V30.4114H57.9232ZM84.7388 30.6861C89.5822 30.6861 91.7479 28.6456 93.3623 26.8797L88.6765 22.7987C87.9677 23.4266 87.0227 24.8785 84.7388 24.8785C81.4705 24.8785 80.2105 22.0924 80.2105 19.3848C80.2105 16.5987 81.4705 13.9304 84.7782 13.9304C86.5108 13.9304 87.4952 14.6367 88.7552 15.9316L93.0867 11.6544C91.1178 9.26076 87.8102 8.16203 84.7388 8.16203C77.1391 8.16203 73.5558 13.538 73.5558 19.3848C73.5558 25.3101 77.1391 30.6861 84.7388 30.6861ZM101.631 30.4114V14.7152C102.734 14.4405 103.837 14.2443 104.742 14.2443C107.459 14.2443 108.995 16.1278 108.995 18.6V30.4114H115.295V16.9519C115.295 11.5367 109.979 8.16203 105.136 8.16203C103.915 8.16203 102.734 8.27975 101.631 8.43671V0L95.3312 0.392405V30.4114H101.631ZM136.086 28.8025L133.054 24.2506C131.44 24.957 130.77 25.1532 128.762 25.1532C126.124 25.1532 124.627 23.5051 124.037 21.5038H138.567C139.039 15.657 136.244 8.16203 128.408 8.16203C120.808 8.16203 117.264 13.538 117.264 19.3848C117.264 25.3101 120.769 30.7646 128.526 30.7646C131.125 30.8038 133.92 30.2544 136.086 28.8025ZM131.991 17.1481H123.958C124.431 15.3038 125.573 13.8519 128.014 13.8519C131.379 13.8519 131.959 16.9598 131.99 17.14L131.991 17.1481Z" fill="black"/>
<path d="M9.56856 30.4114C10.3167 30.4114 12.3249 30.1367 12.3249 29.7835V24.4468C12.0099 24.6038 10.6317 24.643 9.84419 24.643C7.83598 24.643 6.30028 23.2304 6.30028 20.9152V13.538H11.3011L11.6949 8.43671H6.30028V3.4924L0 3.88481V22.0924C0 27.7038 4.72521 30.4114 9.56856 30.4114ZM21.3816 30.4114V18.9139C21.3816 16.4025 22.3266 14.2835 25.2799 14.2835C26.5399 14.2835 28.5482 14.5582 29.3751 14.9506L30.9501 9.4962C29.4144 8.55443 26.7368 8.16203 23.9017 8.16203C19.0977 8.16203 15.0813 11.8114 15.0813 16.9127V30.4114H21.3816ZM40.7943 30.7646C44.4958 30.7646 46.5433 29.862 48.8666 28.881V16.9127C48.8666 11.8114 44.732 8.16203 39.7312 8.16203C38.2742 8.16203 35.2028 8.35823 32.604 9.65316L34.6122 14.0481C36.266 13.4595 38.1955 13.3418 39.4161 13.3418C41.8575 13.381 42.6057 14.4405 42.8025 16.0886C42.2119 16.0101 41.5425 15.9709 40.7943 15.9709C37.1717 15.9709 30.5564 17.3051 30.5564 23.0342C30.5564 27.9 34.0609 30.7646 40.7943 30.7646ZM40.7943 25.5063C38.1955 25.5063 36.4629 24.643 36.4629 23.0342C36.4629 21.3076 38.4711 20.6405 40.8337 20.6405C41.5031 20.6405 42.2119 20.6797 42.8813 20.719V25.3886C42.0544 25.5063 41.5425 25.5063 40.7943 25.5063ZM57.9232 30.4114V14.7152C59.0258 14.4405 60.1283 14.2443 61.034 14.2443C63.751 14.2443 65.2867 16.1278 65.2867 18.6V30.4114H71.587V16.9519C71.587 11.5367 66.2711 8.16203 61.4278 8.16203C57.372 8.16203 54.0643 9.26076 51.6229 10.2418V30.4114H57.9232ZM84.7388 30.6861C89.5822 30.6861 91.7479 28.6456 93.3623 26.8797L88.6765 22.7987C87.9677 23.4266 87.0227 24.8785 84.7388 24.8785C81.4705 24.8785 80.2105 22.0924 80.2105 19.3848C80.2105 16.5987 81.4705 13.9304 84.7782 13.9304C86.5108 13.9304 87.4952 14.6367 88.7552 15.9316L93.0867 11.6544C91.1178 9.26076 87.8102 8.16203 84.7388 8.16203C77.1391 8.16203 73.5558 13.538 73.5558 19.3848C73.5558 25.3101 77.1391 30.6861 84.7388 30.6861ZM101.631 30.4114V14.7152C102.734 14.4405 103.837 14.2443 104.742 14.2443C107.459 14.2443 108.995 16.1278 108.995 18.6V30.4114H115.295V16.9519C115.295 11.5367 109.979 8.16203 105.136 8.16203C103.915 8.16203 102.734 8.27975 101.631 8.43671V0L95.3312 0.392405V30.4114H101.631ZM136.086 28.8025L133.054 24.2506C131.44 24.957 130.77 25.1532 128.762 25.1532C126.124 25.1532 124.627 23.5051 124.037 21.5038H138.567C139.039 15.657 136.244 8.16203 128.408 8.16203C120.808 8.16203 117.264 13.538 117.264 19.3848C117.264 25.3101 120.769 30.7646 128.526 30.7646C131.125 30.8038 133.92 30.2544 136.086 28.8025ZM131.991 17.1481H123.958C124.431 15.3038 125.573 13.8519 128.014 13.8519C131.379 13.8519 131.959 16.9598 131.99 17.14L131.991 17.1481Z" fill="#4441CF"/>
</svg>
