<svg width="86" height="23" viewBox="0 0 86 23" fill="none" xmlns="http://www.w3.org/2000/svg">
<path d="M52.0226 13.3441C52.0226 10.9167 53.2663 9.68721 55.3374 9.68721C56.0404 9.68754 56.7315 9.86269 57.3482 10.1965L58.5668 6.08125C57.4473 5.69186 56.2685 5.49511 55.0822 5.49961C50.1721 5.49961 47.0432 8.17709 47.0432 13.6242V22.6213H52.0202L52.0226 13.3441ZM20.11 0C19.5626 0.0235224 19.0342 0.206641 18.5916 0.526256C18.149 0.845823 17.8122 1.28764 17.6234 1.79604C17.4346 2.3044 17.4019 2.85662 17.5304 3.38311C17.6585 3.9096 17.9417 4.38679 18.344 4.75462C18.7462 5.1225 19.25 5.36447 19.7912 5.45022C20.3325 5.53592 20.8875 5.46147 21.386 5.23627C21.8846 5.01107 22.3044 4.64516 22.5928 4.18469C22.8812 3.72418 23.0254 3.18968 23.0069 2.64843C23.0064 1.13475 21.8447 0.00257753 20.11 0.00257753V0ZM17.6111 22.6187H22.5885V7.83123H17.6116L17.6111 22.6187ZM86 0.00257753H81.0282V22.6213H86V0.00257753ZM34.2568 22.9121C31.7631 22.941 29.3031 22.3452 27.1059 21.1804V0.00257753H32.0677V6.16527C33.1222 5.66595 34.2801 5.41789 35.4494 5.44104C40.2613 5.44104 44.2265 8.90895 44.2265 14.2333C44.2521 19.3744 40.6384 22.8983 34.2568 22.8917V22.9121ZM32.0677 18.6338C32.8062 18.8036 33.5572 18.9178 34.3133 18.9756C37.1528 19.1538 39.1978 17.1598 39.1978 14.2323C39.1978 11.0348 37.0755 9.47377 34.5875 9.47377C33.6866 9.46445 32.8053 9.73374 32.0677 10.2439V18.6338ZM13.4804 14.8893V0.00257753H8.3179V15.1751C8.3179 17.5973 7.23493 18.8268 5.1634 18.8268C4.00075 18.8086 2.89028 18.3462 2.06536 17.5368L0 21.4702C1.61946 22.5037 3.51406 23.0357 5.44185 22.9981C10.6873 23.019 13.4804 20.3416 13.4804 14.8893ZM59.6431 14.1651C59.6431 9.09587 63.5666 5.43898 68.7969 5.43898C73.8308 5.43898 77.7238 8.77958 77.7238 14.2262C77.7238 14.6087 77.6617 15.143 77.6256 15.5504H64.6358C65.1106 17.6621 66.9279 18.9521 69.5459 18.9521C70.3385 18.9833 71.1293 18.8541 71.8698 18.5726C72.6102 18.2911 73.2843 17.8633 73.8516 17.3152L76.4952 20.1511C74.9 21.9464 72.5092 22.8897 69.4164 22.8897C63.484 22.8897 59.627 19.2022 59.627 14.1635L59.6431 14.1651ZM64.5841 12.6881H73.0357C72.8678 11.701 72.3512 10.8046 71.5776 10.1581C70.8039 9.51163 69.8234 9.15688 68.8102 9.15688C67.7964 9.15688 66.8159 9.51163 66.0423 10.1581C65.2686 10.8046 64.752 11.701 64.5841 12.6881Z" fill="#2D28FF"/>
</svg>
