<svg width="134" height="134" viewBox="0 0 134 134" fill="none" xmlns="http://www.w3.org/2000/svg">
<path d="M0 66.6522C0 29.8412 29.8412 0 66.6522 0V0C103.463 0 133.304 29.8412 133.304 66.6522V66.6522C133.304 103.463 103.463 133.304 66.6522 133.304V133.304C29.8412 133.304 0 103.463 0 66.6522V66.6522Z" fill="#8247E5"/>
<path d="M86.4394 54.2478C85.1136 53.469 83.2197 53.469 81.7045 54.2478L70.9091 60.6726L63.5227 64.9558L52.7273 71.3805C51.4015 72.1593 49.5076 72.1593 47.9924 71.3805L39.4697 66.3186C38.1439 65.5398 37.197 63.9823 37.197 62.2301V52.3009C37.197 50.5487 37.9545 48.9912 39.4697 48.2124L47.803 43.3451C49.1288 42.5664 51.0227 42.5664 52.5379 43.3451L60.8712 48.2124C62.197 48.9912 63.1439 50.5487 63.1439 52.3009V58.7257L70.5303 54.4425V47.823C70.5303 46.0708 69.7727 44.708 68.2576 43.7345L52.7273 34.5841C51.4015 33.8053 49.5076 33.8053 47.9924 34.5841L32.2727 43.9292C30.7576 44.708 30 46.2655 30 47.823V66.3186C30 68.0708 30.7576 69.6283 32.2727 70.4071L48.1818 79.5575C49.5076 80.3363 51.4015 80.3363 52.9167 79.5575L63.7121 73.3274L71.0985 69.0442L81.8939 62.8142C83.2197 62.0354 85.1136 62.0354 86.6288 62.8142L94.9621 67.6814C96.2879 68.4602 97.2349 70.0177 97.2349 71.7699V81.6991C97.2349 83.4513 96.4773 85.0089 94.9621 85.7876L86.6288 90.8496C85.303 91.6283 83.4091 91.6283 81.8939 90.8496L73.5606 85.9823C72.2349 85.2035 71.2879 83.646 71.2879 81.8938V75.469L63.9015 79.7522V86.177C63.9015 87.9292 64.6591 89.4867 66.1742 90.2655L82.0833 99.4159C83.4091 100.195 85.303 100.195 86.8182 99.4159L102.727 90.2655C104.053 89.4867 105 87.9292 105 86.177V67.6814C105 65.9292 104.242 64.3717 102.727 63.5929L86.4394 54.2478Z" fill="white"/>
</svg>
