<svg width="86" height="86" viewBox="0 0 86 86" fill="none" xmlns="http://www.w3.org/2000/svg">
<path d="M43 0C19.2828 0 0 19.2828 0 43C0 66.7172 19.2828 86 43 86C66.7172 86 86 66.7172 86 43C86 19.2828 66.7172 0 43 0Z" fill="#369987"/>
<path d="M64.7856 33.8793L41.5051 57.1766C40.7996 57.882 39.8926 58.2348 38.9688 58.2348C38.0449 58.2348 37.1379 57.882 36.4324 57.1766L24.7922 45.5363C23.398 44.1422 23.398 41.8746 24.7922 40.4637C26.1863 39.0695 28.4539 39.0695 29.8648 40.4637L38.9856 49.5844L59.7465 28.8234C61.1406 27.4293 63.4082 27.4293 64.8192 28.8234C66.1965 30.2176 66.1965 32.4852 64.7856 33.8793Z" fill="white"/>
</svg>
