<svg width="23" height="23" viewBox="0 0 23 23" fill="none" xmlns="http://www.w3.org/2000/svg">
    <path d="M1.67708 0H4.07292C4.99771 0 5.75 0.752292 5.75 1.67708V2.02783C7.199 1.28992 10.4899 0 15.8422 0H17.3755C19.597 0 21.483 1.58892 21.8596 3.77775L22.9329 10.0069C23.161 11.3361 22.794 12.6874 21.9276 13.7166C21.0623 14.744 19.7934 15.3333 18.4489 15.3333H14.1019C14.3731 16.0617 14.6443 17.1235 14.6443 18.4479C14.6443 22.0484 12.6069 23 11.5297 23C9.54021 23 9.37346 21.1447 9.37346 19.4062C9.37346 17.2845 6.99392 15.5212 5.73754 14.7373C5.67333 15.6036 4.95554 16.2917 4.07292 16.2917H1.67708C0.752292 16.2917 0 15.5394 0 14.6146V1.67708C0 0.752292 0.752292 0 1.67708 0ZM10.811 19.4062C10.811 21.5625 11.1761 21.5625 11.5297 21.5625C12.2044 21.5625 13.2068 20.7326 13.2068 18.4479C13.2068 16.3243 12.375 15.0228 12.3692 15.0133C12.2226 14.7928 12.2082 14.5092 12.3338 14.2753C12.4583 14.0415 12.7027 13.8958 12.9672 13.8958H18.4489C19.3689 13.8958 20.2362 13.4933 20.8284 12.7909C21.4216 12.0875 21.6727 11.1617 21.5165 10.2523L20.4432 4.02308C20.1854 2.52617 18.8955 1.43846 17.3755 1.43846H15.8422C9.32267 1.4375 6.05667 3.47683 5.75 3.67904V13.0803C6.54829 13.5039 10.811 15.9285 10.811 19.4062ZM1.4375 14.6146C1.4375 14.7468 1.54483 14.8542 1.67708 14.8542H4.07292C4.20517 14.8542 4.3125 14.7468 4.3125 14.6146V1.67708C4.3125 1.54675 4.20325 1.4375 4.07292 1.4375H1.67708C1.54483 1.4375 1.4375 1.54483 1.4375 1.67708V14.6146Z" fill="white" fill-opacity="0.7"/>
</svg>