<svg width="26" height="24" viewBox="0 0 26 24" fill="none" xmlns="http://www.w3.org/2000/svg">
<path d="M19.5657 7.36283C19.1061 7.07965 18.4495 7.07965 17.9242 7.36283L14.1818 9.69912L11.6212 11.2566L7.87879 13.5929C7.41919 13.8761 6.76263 13.8761 6.23737 13.5929L3.28283 11.7522C2.82323 11.469 2.49495 10.9027 2.49495 10.2655V6.65487C2.49495 6.0177 2.75758 5.45133 3.28283 5.16814L6.17172 3.39823C6.63131 3.11504 7.28788 3.11504 7.81313 3.39823L10.702 5.16814C11.1616 5.45133 11.4899 6.0177 11.4899 6.65487V8.99115L14.0505 7.43363V5.02655C14.0505 4.38938 13.7879 3.89381 13.2626 3.53982L7.87879 0.212389C7.41919 -0.0707965 6.76263 -0.0707965 6.23737 0.212389L0.787879 3.61062C0.262626 3.89381 0 4.46018 0 5.02655V11.7522C0 12.3894 0.262626 12.9558 0.787879 13.2389L6.30303 16.5664C6.76263 16.8496 7.41919 16.8496 7.94444 16.5664L11.6869 14.3009L14.2475 12.7434L17.9899 10.4779C18.4495 10.1947 19.1061 10.1947 19.6313 10.4779L22.5202 12.2478C22.9798 12.531 23.3081 13.0973 23.3081 13.7345V17.3451C23.3081 17.9823 23.0455 18.5487 22.5202 18.8319L19.6313 20.6726C19.1717 20.9558 18.5152 20.9558 17.9899 20.6726L15.101 18.9027C14.6414 18.6195 14.3131 18.0531 14.3131 17.4159V15.0796L11.7525 16.6372V18.9735C11.7525 19.6106 12.0152 20.177 12.5404 20.4602L18.0556 23.7876C18.5152 24.0708 19.1717 24.0708 19.697 23.7876L25.2121 20.4602C25.6717 20.177 26 19.6106 26 18.9735V12.2478C26 11.6106 25.7374 11.0442 25.2121 10.7611L19.5657 7.36283Z" fill="#8247E5"/>
</svg>
