<svg width="32" height="30" viewBox="0 0 32 30" fill="none" xmlns="http://www.w3.org/2000/svg">
<path d="M19.7929 4.60177C19.4924 4.42478 19.0631 4.42478 18.7197 4.60177L16.2727 6.06195L14.5985 7.0354L12.1515 8.49558C11.851 8.67257 11.4217 8.67257 11.0783 8.49558L9.14646 7.34513C8.84596 7.16814 8.63131 6.81416 8.63131 6.41593V4.15929C8.63131 3.76106 8.80303 3.40708 9.14646 3.23009L11.0354 2.12389C11.3359 1.9469 11.7652 1.9469 12.1086 2.12389L13.9975 3.23009C14.298 3.40708 14.5126 3.76106 14.5126 4.15929V5.61947L16.1869 4.64602V3.14159C16.1869 2.74336 16.0152 2.43363 15.6717 2.21239L12.1515 0.132743C11.851 -0.0442478 11.4217 -0.0442478 11.0783 0.132743L7.51515 2.25664C7.17172 2.43363 7 2.78761 7 3.14159V7.34513C7 7.74336 7.17172 8.09735 7.51515 8.27434L11.1212 10.354C11.4217 10.531 11.851 10.531 12.1944 10.354L14.6414 8.93805L16.3157 7.9646L18.7626 6.54867C19.0631 6.37168 19.4924 6.37168 19.8359 6.54867L21.7247 7.65487C22.0253 7.83186 22.2399 8.18584 22.2399 8.58407V10.8407C22.2399 11.2389 22.0682 11.5929 21.7247 11.7699L19.8359 12.9204C19.5354 13.0973 19.1061 13.0973 18.7626 12.9204L16.8737 11.8142C16.5732 11.6372 16.3586 11.2832 16.3586 10.885V9.42478L14.6843 10.3982V11.8584C14.6843 12.2566 14.8561 12.6106 15.1995 12.7876L18.8056 14.8673C19.1061 15.0442 19.5354 15.0442 19.8788 14.8673L23.4848 12.7876C23.7854 12.6106 24 12.2566 24 11.8584V7.65487C24 7.25664 23.8283 6.90266 23.4848 6.72566L19.7929 4.60177Z" fill="#8247E5"/>
<path d="M3.78236 23.242C4.05253 23.4221 4.32269 23.6623 4.47279 23.9625C4.6529 24.2927 4.74296 24.6829 4.74296 25.1032C4.74296 25.5235 4.6529 25.9137 4.47279 26.2139C4.29268 26.5441 4.02251 26.7842 3.6923 26.9343C3.33208 27.1144 2.94183 27.2045 2.52157 27.2045C2.28142 27.2045 2.07129 27.1745 1.83114 27.0844C1.62101 27.0244 1.41088 26.9043 1.26079 26.7542V29.0056H0V23.0619H1.08067L1.20075 23.5422C1.68105 23.152 2.22138 22.9719 2.76172 22.9719C3.12195 22.9719 3.48217 23.0319 3.78236 23.242ZM3.06191 25.9137C3.27204 25.7336 3.39211 25.4634 3.39211 25.1332C3.39211 24.803 3.27204 24.5629 3.09193 24.3227C2.8818 24.1126 2.64165 24.0225 2.34146 24.0225C2.10131 24.0225 1.89118 24.0525 1.71107 24.1726C1.53095 24.2627 1.41088 24.4128 1.2908 24.5929V25.5535C1.35084 25.7336 1.50094 25.8837 1.65103 26.0038C1.83114 26.1238 2.01125 26.1839 2.2514 26.1839C2.58161 26.2139 2.85178 26.0938 3.06191 25.9137Z" fill="white"/>
<path d="M5.46324 23.9926C5.67337 23.6924 5.91352 23.4223 6.27375 23.2722C6.63397 23.0921 7.02422 23.002 7.44448 23.002C7.89476 23.002 8.285 23.0921 8.61521 23.2722C8.94541 23.4523 9.21558 23.6924 9.39569 24.0227C9.60583 24.3529 9.66586 24.6831 9.66586 25.1033C9.66586 25.5236 9.57581 25.8538 9.39569 26.184C9.18556 26.5142 8.94541 26.7544 8.61521 26.9345C8.285 27.1146 7.86474 27.2046 7.44448 27.2046C6.9942 27.2046 6.60396 27.1146 6.27375 26.9345C5.91352 26.7544 5.67337 26.5142 5.46324 26.214C5.28313 25.8838 5.19307 25.5236 5.19307 25.1033C5.16306 24.6831 5.28313 24.3228 5.46324 23.9926ZM6.75405 25.8538C6.93416 26.0639 7.17431 26.154 7.44448 26.154C7.71465 26.154 7.98482 26.0339 8.13491 25.8538C8.31502 25.6737 8.40508 25.3735 8.40508 25.0733C8.40508 24.7431 8.31502 24.5029 8.13491 24.2928C7.92478 24.0827 7.71465 23.9626 7.41446 23.9626C7.14429 23.9626 6.90414 24.0827 6.72403 24.2628C6.54392 24.4729 6.45386 24.7431 6.45386 25.0733C6.45386 25.4035 6.54392 25.6437 6.75405 25.8538Z" fill="white"/>
<path d="M11.7671 20V27.0844H10.5063V20H11.7671Z" fill="white"/>
<path d="M16.9603 23.1819L14.3787 29.0056H13.1479L14.1085 26.9043L12.2773 23.1819H13.7182L14.7689 25.4934L15.8196 23.1819H16.9603V23.1819Z" fill="white"/>
<path d="M21.8235 23.1821V27.1146C21.8235 27.4748 21.7034 27.835 21.4933 28.1352C21.2832 28.4354 20.983 28.6756 20.6228 28.8557C20.2625 29.0358 19.8423 29.1258 19.422 29.1258C19.0918 29.1258 18.8216 29.0958 18.5815 29.0058C18.3413 28.9157 18.1312 28.8256 17.9811 28.7356C17.801 28.6155 17.6209 28.4954 17.4408 28.3153L18.1912 27.4448C18.3714 27.6249 18.5515 27.745 18.7316 27.835C18.9117 27.9251 19.1518 27.9851 19.422 27.9851C19.7522 27.9851 20.0224 27.8951 20.2325 27.745C20.4426 27.5949 20.5627 27.3547 20.5627 27.0846V26.5142C20.4426 26.6943 20.2625 26.8744 19.9924 27.0245C19.7222 27.1446 19.422 27.2046 19.0618 27.2046C18.7016 27.2046 18.3714 27.1146 18.0411 26.9345C17.741 26.7544 17.5008 26.5142 17.2907 26.184C17.1106 25.8538 17.0205 25.5236 17.0205 25.1333C17.0205 24.7431 17.1106 24.3829 17.2907 24.0527C17.5008 23.7225 17.741 23.4823 18.0712 23.2722C18.3713 23.0921 18.7016 23.002 19.0618 23.002C19.392 23.002 19.6622 23.032 19.9323 23.1221C20.2025 23.2121 20.3826 23.3322 20.5327 23.4823L20.6528 23.1821H21.8235V23.1821ZM20.5327 25.5836V24.623C20.4426 24.4429 20.3226 24.2928 20.1124 24.1727C19.9023 24.0527 19.6922 23.9926 19.422 23.9926C19.1218 23.9926 18.8516 24.1127 18.6415 24.2928C18.4314 24.4729 18.3113 24.7431 18.3113 25.0733C18.3113 25.3735 18.4314 25.6437 18.6415 25.8838C18.8516 26.0939 19.1218 26.214 19.422 26.214C19.9623 26.154 20.3226 25.9739 20.5327 25.5836Z" fill="white"/>
<path d="M22.8742 23.9925C23.0843 23.6623 23.3245 23.4221 23.6847 23.242C24.0449 23.0619 24.4351 22.9719 24.8554 22.9719C25.3057 22.9719 25.6959 23.0619 26.0261 23.242C26.3563 23.4221 26.6265 23.6623 26.8066 23.9925C26.9867 24.3227 27.0768 24.6529 27.0768 25.0732C27.0768 25.4934 26.9867 25.8236 26.8066 26.1538C26.6265 26.4841 26.3563 26.7242 26.0261 26.9043C25.6959 27.0844 25.2757 27.1745 24.8554 27.1745C24.4051 27.1745 24.0149 27.0844 23.6847 26.9043C23.3545 26.7242 23.0843 26.4841 22.8742 26.1839C22.664 25.8537 22.604 25.4934 22.604 25.0432C22.604 24.6829 22.6941 24.3227 22.8742 23.9925ZM24.165 25.8537C24.3451 26.0638 24.5852 26.1538 24.8554 26.1538C25.1256 26.1538 25.3957 26.0338 25.5458 25.8537C25.726 25.6735 25.816 25.3734 25.816 25.0732C25.816 24.743 25.726 24.5028 25.5458 24.2927C25.3657 24.1126 25.1256 23.9925 24.8554 23.9925C24.5852 23.9925 24.3451 24.1126 24.165 24.2927C23.9548 24.4728 23.8948 24.773 23.8948 25.0732C23.8948 25.4034 23.9849 25.6435 24.165 25.8537Z" fill="white"/>
<path d="M31.6095 23.3021C31.8797 23.5122 31.9698 23.8124 31.9998 24.1426V27.0844H30.709V24.6229C30.6789 24.2326 30.4988 24.0525 30.1086 24.0525C29.8384 24.0525 29.5683 24.1726 29.4182 24.4728C29.238 24.743 29.148 25.1032 29.148 25.4934V27.1144H27.8872V23.182H29.0579L29.148 23.8124C29.2981 23.5422 29.5082 23.3621 29.7484 23.212C30.0185 23.0619 30.3187 23.0019 30.6789 23.0019C31.0392 22.9719 31.3694 23.0919 31.6095 23.3021Z" fill="white"/>
</svg>
