<svg width="29" height="29" viewBox="0 0 29 29" fill="none" xmlns="http://www.w3.org/2000/svg">
<path d="M25.8527 12.2494C25.5636 12.2494 25.2866 12.3642 25.0823 12.5685C24.8781 12.7729 24.7634 13.05 24.7634 13.339V25.8694C24.7634 26.1236 24.6622 26.3674 24.4825 26.5474C24.3028 26.7271 24.0589 26.8281 23.8047 26.8281H3.13718C2.8842 26.8262 2.64224 26.7243 2.46403 26.5448C2.28584 26.3652 2.18584 26.1224 2.18585 25.8694V5.19611C2.18584 4.94304 2.28584 4.70026 2.46403 4.52066C2.64224 4.34104 2.8842 4.23919 3.13718 4.23726H15.6568C15.9457 4.23726 16.2228 4.12247 16.427 3.91812C16.6313 3.7138 16.7461 3.43664 16.7461 3.14767C16.7461 2.8587 16.6313 2.58154 16.427 2.37721C16.2228 2.17287 15.9457 2.05807 15.6568 2.05807H3.13718C2.30573 2.06 1.50889 2.39122 0.920974 2.97929C0.333056 3.56738 0.00191798 4.36443 0 5.19611V25.8694C0.00383238 26.6997 0.335816 27.4948 0.923525 28.0815C1.51124 28.668 2.30698 28.9981 3.13718 29H23.8047C24.6348 28.9981 25.4306 28.668 26.0184 28.0815C26.6061 27.4948 26.9381 26.6997 26.9419 25.8694V13.339C26.9419 13.05 26.827 12.7729 26.6228 12.5685C26.4185 12.3642 26.1415 12.2494 25.8527 12.2494Z" fill="#AEAEAE"/>
<path d="M27.6779 1.32105C26.8272 0.474986 25.6757 0 24.4755 0C23.2753 0 22.1239 0.474986 21.2732 1.32105L13.0178 9.57002C12.8979 9.6907 12.808 9.83782 12.7555 9.99958L10.3437 17.2802C10.2815 17.4718 10.2734 17.6768 10.3205 17.8726C10.3675 18.0684 10.4679 18.2474 10.6104 18.3898C10.7529 18.5322 10.9321 18.6325 11.128 18.6795C11.324 18.7265 11.5292 18.7185 11.7208 18.6563L19.0072 16.2464C19.1691 16.1939 19.3163 16.1041 19.4371 15.9843L27.6779 7.72074C28.5248 6.87073 29 5.72021 29 4.52089C29 3.32157 28.5248 2.17107 27.6779 1.32105ZM18.06 14.2442L13.098 15.8896L14.7447 10.9315L20.6903 4.99778L23.9983 8.30319L18.06 14.2442ZM26.1333 6.18452L25.5431 6.76698L22.2351 3.46157L22.818 2.87182C23.2633 2.4616 23.8503 2.2394 24.4559 2.25171C25.0614 2.26402 25.6388 2.5099 26.067 2.93787C26.4956 3.36586 26.7416 3.94278 26.7539 4.54791C26.7663 5.15305 26.5439 5.73948 26.1333 6.18452Z" fill="#AEAEAE"/>
</svg>
