<svg width="11" height="10" viewBox="0 0 11 10" fill="none" xmlns="http://www.w3.org/2000/svg">
<path d="M5.32065 0.363397C5.39402 0.214748 5.60598 0.214748 5.67935 0.363397L7.06988 3.18091C7.09901 3.23994 7.15532 3.28086 7.22046 3.29032L10.3298 3.74213C10.4938 3.76597 10.5593 3.96756 10.4406 4.08327L8.1907 6.2764C8.14356 6.32235 8.12205 6.38855 8.13318 6.45343L8.66431 9.55018C8.69234 9.71356 8.52085 9.83815 8.37412 9.76102L5.59307 8.29893C5.5348 8.2683 5.4652 8.2683 5.40693 8.29893L2.62588 9.76102C2.47915 9.83815 2.30766 9.71356 2.33569 9.55018L2.86682 6.45343C2.87795 6.38855 2.85644 6.32235 2.8093 6.2764L0.559379 4.08327C0.440676 3.96756 0.506178 3.76597 0.670222 3.74213L3.77954 3.29032C3.84468 3.28086 3.90099 3.23994 3.93012 3.18091L5.32065 0.363397Z" fill="#FFCE20"/>
</svg>
