<svg width="56" height="56" viewBox="0 0 56 56" fill="none" xmlns="http://www.w3.org/2000/svg">
<g clip-path="url(#clip0_2626_16532)">
<path d="M28 1.99991C42.3607 1.99991 54 13.6415 54 27.9999C54 42.3606 42.3607 53.9999 28 53.9999C13.6416 53.9999 2 42.3595 2 27.9999C2 13.6415 13.6416 1.99991 28 1.99991Z" fill="#4441CF"/>
<path d="M14.7925 7.66222C26.0258 0.367261 41.044 3.56102 48.3378 14.7925C55.6328 26.0258 52.4408 41.0427 41.2075 48.3377C29.9761 55.6315 14.9566 52.4398 7.66224 41.2075C0.368496 29.9761 3.56112 14.956 14.7925 7.66222Z" stroke="url(#paint0_linear_2626_16532)" stroke-width="3.5"/>
<path d="M35.2249 28.4803C35.9178 27.2835 37.0359 27.2835 37.7288 28.4803L42.0438 36.0551C42.7367 37.252 42.1697 38.2283 40.7839 38.2283H32.091C30.7209 38.2283 30.154 37.252 30.8312 36.0551L35.2249 28.4803ZM26.8784 13.8976C27.5713 12.7008 28.6737 12.7008 29.3666 13.8976L30.3272 15.6299L32.5949 19.6142C33.1461 20.748 33.1461 22.0866 32.5949 23.2205L24.9886 36.4016C24.2957 37.4724 23.1461 38.1496 21.8705 38.2283H15.5556C14.1697 38.2283 13.6028 37.2677 14.2957 36.0551L26.8784 13.8976Z" fill="white"/>
</g>
<defs>
<linearGradient id="paint0_linear_2626_16532" x1="13.8394" y1="6.19455" x2="42.1606" y2="49.8054" gradientUnits="userSpaceOnUse">
<stop offset="0.492708" stop-color="#E84142"/>
<stop offset="0.492808" stop-color="#414141"/>
</linearGradient>
<clipPath id="clip0_2626_16532">
<rect width="56" height="56" fill="white"/>
</clipPath>
</defs>
</svg>
