<svg width="40" height="40" viewBox="0 0 40 40" fill="none" xmlns="http://www.w3.org/2000/svg">
<path d="M20 40C31.0457 40 40 31.0457 40 20C40 8.95431 31.0457 0 20 0C8.95431 0 0 8.95431 0 20C0 31.0457 8.95431 40 20 40Z" fill="#E84142"/>
<path d="M27.0551 20.5194C27.748 19.3225 28.8661 19.3225 29.559 20.5194L33.874 28.0942C34.5669 29.291 33.9999 30.2674 32.6141 30.2674H23.9212C22.5511 30.2674 21.9842 29.291 22.6614 28.0942L27.0551 20.5194ZM18.7086 5.9367C19.4015 4.73985 20.5039 4.73985 21.1968 5.9367L22.1574 7.66898L24.4251 11.6532C24.9763 12.7871 24.9763 14.1257 24.4251 15.2595L16.8188 28.4406C16.1259 29.5115 14.9763 30.1887 13.7007 30.2674H7.38577C5.99995 30.2674 5.43302 29.3068 6.12593 28.0942L18.7086 5.9367Z" fill="white"/>
</svg>