<svg width="56" height="56" viewBox="0 0 56 56" fill="none" xmlns="http://www.w3.org/2000/svg">
<g clip-path="url(#clip0_2626_16799)">
<path d="M28 2C42.3607 2 54 13.6416 54 28C54 42.3607 42.3607 54 28 54C13.6416 54 2 42.3596 2 28C2 13.6416 13.6416 2 28 2Z" fill="white"/>
<path d="M14.7925 7.66225C26.0258 0.367292 41.044 3.56105 48.3378 14.7925C55.6328 26.0259 52.4408 41.0428 41.2075 48.3378C29.9761 55.6315 14.9566 52.4398 7.66224 41.2075C0.368496 29.9761 3.56112 14.956 14.7925 7.66225Z" stroke="url(#paint0_linear_2626_16799)" stroke-width="3.5"/>
<path d="M36.9155 36.2187L30.0386 19.3013C29.6507 18.4267 29.0742 18 28.3142 18H27.7061C26.9461 18 26.3696 18.4267 25.9817 19.3013L22.9888 26.672H20.7245C20.0483 26.6773 19.4979 27.232 19.4927 27.9253V27.9413C19.4979 28.6293 20.0483 29.1893 20.7245 29.1947H21.9405L19.0839 36.2187C19.0314 36.3733 19 36.5333 19 36.6987C19 37.0933 19.1206 37.4027 19.3355 37.6427C19.5504 37.8827 19.8596 38 20.2475 38C20.5043 37.9947 20.7507 37.9147 20.9551 37.76C21.1752 37.6053 21.3272 37.3813 21.4478 37.1253L24.5927 29.1893H26.7732C27.4493 29.184 27.9997 28.6293 28.0049 27.936V27.904C27.9997 27.216 27.4493 26.656 26.7732 26.6507H25.6095L28.0102 20.5653L34.5516 37.12C34.6721 37.376 34.8241 37.6 35.0443 37.7547C35.2487 37.9093 35.5003 37.9893 35.7519 37.9947C36.1397 37.9947 36.4437 37.8773 36.6639 37.6373C36.884 37.3973 36.9993 37.088 36.9993 36.6933C37.0046 36.5333 36.9784 36.368 36.9155 36.2187Z" fill="url(#paint1_linear_2626_16799)"/>
</g>
<defs>
<linearGradient id="paint0_linear_2626_16799" x1="13.8394" y1="6.19458" x2="42.1606" y2="49.8054" gradientUnits="userSpaceOnUse">
<stop offset="0.492708" stop-color="#E84142"/>
<stop offset="0.492808" stop-color="#414141"/>
</linearGradient>
<linearGradient id="paint1_linear_2626_16799" x1="19.03" y1="38.6399" x2="35.7617" y2="23.691" gradientUnits="userSpaceOnUse">
<stop stop-color="#FF63B7"/>
<stop offset="1" stop-color="#7BFFC7"/>
</linearGradient>
<clipPath id="clip0_2626_16799">
<rect width="56" height="56" fill="white"/>
</clipPath>
</defs>
</svg>
