<svg width="56" height="56" viewBox="0 0 56 56" fill="none" xmlns="http://www.w3.org/2000/svg">
<g clip-path="url(#clip0_2626_16789)">
<path d="M28 2C42.3607 2 54 13.6416 54 28C54 42.3607 42.3607 54 28 54C13.6416 54 2 42.3596 2 28C2 13.6416 13.6416 2 28 2Z" fill="white"/>
<path d="M29.3105 29.4002H36.8669C37.0279 29.4002 37.104 29.4002 37.1156 29.19C37.1774 28.4253 37.1774 27.6561 37.1156 26.8904C37.1156 26.7417 37.0414 26.6803 36.8794 26.6803H21.8409C21.6548 26.6803 21.6046 26.7417 21.6046 26.9153V29.1162C21.6046 29.4002 21.6046 29.4002 21.9026 29.4002H29.3105ZM36.2718 24.1082C36.2932 24.0521 36.2932 23.9907 36.2718 23.9355C36.1456 23.6621 35.9961 23.4013 35.8225 23.1565C35.5612 22.738 35.2534 22.3525 34.9026 22.0062C34.737 21.797 34.5455 21.6091 34.3308 21.4497C33.2551 20.539 31.9763 19.8944 30.6018 19.5703C29.9083 19.4154 29.1995 19.3415 28.489 19.3477H21.8149C21.6288 19.3477 21.6038 19.4216 21.6038 19.5828V23.972C21.6038 24.1572 21.6038 24.207 21.84 24.207H36.1823C36.1823 24.207 36.3067 24.1821 36.3317 24.1082H36.2718ZM36.2718 31.9722C36.0606 31.9491 35.8476 31.9491 35.6364 31.9722H21.8534C21.6673 31.9722 21.6046 31.9722 21.6046 32.2197V36.511C21.6046 36.7087 21.6046 36.7585 21.8534 36.7585H28.2169C28.5212 36.7817 28.8254 36.7603 29.1234 36.6971C30.047 36.6312 30.9553 36.4318 31.8215 36.1033C32.1365 35.9946 32.4408 35.8531 32.728 35.683H32.8148C34.3066 34.9111 35.5183 33.6985 36.2825 32.21C36.2825 32.21 36.3693 32.0212 36.2718 31.9722ZM19.107 38.9834V38.9095V36.0285V35.0518V32.1459C19.107 31.9847 19.107 31.9607 18.9084 31.9607H16.2112C16.0617 31.9607 16 31.9607 16 31.763V29.4135H18.8833C19.0444 29.4135 19.107 29.4135 19.107 29.2034V26.8788C19.107 26.7301 19.107 26.6936 18.9084 26.6936H16.2112C16.0617 26.6936 16 26.6936 16 26.496V24.3201C16 24.1839 16 24.1474 16.1987 24.1474H18.8708C19.0569 24.1474 19.107 24.1474 19.107 23.9123V17.2475C19.107 17.0499 19.107 17 19.3558 17H28.6769C29.3534 17.0267 30.0255 17.1006 30.6904 17.2226C32.0604 17.4745 33.3768 17.9615 34.5804 18.6569C35.3787 19.1243 36.1134 19.6887 36.7675 20.3386C37.2597 20.847 37.7036 21.3972 38.0973 21.983C38.4884 22.5769 38.8132 23.2117 39.0683 23.8749C39.0996 24.0476 39.266 24.1643 39.4396 24.1349H41.6643C41.9498 24.1349 41.9498 24.1349 41.9623 24.4073V26.4354C41.9623 26.6331 41.888 26.6829 41.6885 26.6829H39.973C39.7994 26.6829 39.7493 26.6829 39.7618 26.9055C39.8298 27.6587 39.8298 28.4146 39.7618 29.1678C39.7618 29.3779 39.7618 29.4028 39.9989 29.4028H41.9614C42.0482 29.5141 41.9614 29.6254 41.9614 29.7376C41.9739 29.8809 41.9739 30.026 41.9614 30.1694V31.666C41.9614 31.8761 41.8997 31.9384 41.7126 31.9384H39.3636C39.1998 31.9073 39.0405 32.0114 39.0029 32.1735C38.4436 33.6202 37.5488 34.9174 36.3926 35.9572C35.9702 36.3356 35.5263 36.6917 35.0628 37.0203C34.5652 37.3052 34.0811 37.6016 33.571 37.8367C32.6323 38.2569 31.6479 38.5667 30.6376 38.7635C29.6783 38.9344 28.7055 39.0119 27.7292 38.9985H19.1035V38.9861L19.107 38.9834Z" fill="#4441CF"/>
<path d="M14.7925 7.66225C26.0258 0.367292 41.044 3.56105 48.3378 14.7925C55.6328 26.0259 52.4408 41.0428 41.2075 48.3378C29.9761 55.6315 14.9566 52.4398 7.66224 41.2075C0.368496 29.9761 3.56112 14.956 14.7925 7.66225Z" stroke="url(#paint0_linear_2626_16789)" stroke-width="3.5"/>
</g>
<defs>
<linearGradient id="paint0_linear_2626_16789" x1="13.8394" y1="6.19458" x2="42.1606" y2="49.8054" gradientUnits="userSpaceOnUse">
<stop offset="0.492708" stop-color="#E84142"/>
<stop offset="0.492808" stop-color="#414141"/>
</linearGradient>
<clipPath id="clip0_2626_16789">
<rect width="56" height="56" fill="white"/>
</clipPath>
</defs>
</svg>
