<svg width="56" height="56" viewBox="0 0 56 56" fill="none" xmlns="http://www.w3.org/2000/svg">
<g clip-path="url(#clip0_2626_16627)">
<path d="M28 1.99994C42.3607 1.99994 54 13.6416 54 27.9999C54 42.3607 42.3607 53.9999 28 53.9999C13.6416 53.9999 2 42.3595 2 27.9999C2 13.6416 13.6416 1.99994 28 1.99994Z" fill="white"/>
<path d="M14.7925 7.66225C26.0257 0.367292 41.0439 3.56105 48.3377 14.7925C55.6328 26.0259 52.4408 41.0428 41.2075 48.3378C29.9761 55.6315 14.9566 52.4398 7.66222 41.2075C0.36848 29.9761 3.56111 14.956 14.7925 7.66225Z" stroke="url(#paint0_linear_2626_16627)" stroke-width="3.5"/>
<path d="M33.1195 30.8325C33.1195 28.0002 31.4906 27.0291 28.2328 26.6245C25.9058 26.3007 25.4404 25.6534 25.4404 24.5203C25.4404 23.3872 26.2161 22.6591 27.7674 22.6591C29.1636 22.6591 29.9393 23.1447 30.3271 24.3585C30.4047 24.6013 30.6374 24.7631 30.8701 24.7631H32.111C32.4214 24.7631 32.6541 24.5203 32.6541 24.1967V24.1158C32.3437 22.3353 30.9475 20.9597 29.1636 20.7979V18.8557C29.1636 18.5319 28.9309 18.2892 28.5431 18.2082H27.3796C27.0693 18.2082 26.8366 18.4509 26.7589 18.8557V20.7169C24.4319 21.0407 22.9583 22.6591 22.9583 24.6823C22.9583 27.3528 24.5096 28.4047 27.7674 28.8095C29.9393 29.214 30.6374 29.6996 30.6374 30.9944C30.6374 32.2893 29.5513 33.1794 28.0777 33.1794C26.0608 33.1794 25.3627 32.2891 25.13 31.0752C25.0526 30.7517 24.8199 30.5897 24.5872 30.5897H23.2684C22.9583 30.5897 22.7256 30.8325 22.7256 31.1562V31.2372C23.0357 33.2602 24.2769 34.7169 26.8366 35.1216V37.0638C26.8366 37.3874 27.0693 37.6302 27.457 37.7112H28.6205C28.9309 37.7112 29.1636 37.4684 29.2412 37.0638V35.1216C31.5682 34.7169 33.1195 33.0174 33.1195 30.8325Z" fill="#4441CF"/>
<path d="M24.0441 39.3295C17.9938 37.0637 14.8911 30.0232 17.1406 23.7918C18.3041 20.393 20.8639 17.8034 24.0441 16.5895C24.3544 16.4278 24.5095 16.185 24.5095 15.7802V14.6473C24.5095 14.3236 24.3544 14.0808 24.0441 14C23.9664 14 23.8114 14 23.7337 14.0808C16.3649 16.5086 12.3313 24.6821 14.6583 32.37C16.0546 36.9017 19.39 40.3816 23.7337 41.8382C24.0441 42 24.3544 41.8382 24.4318 41.5144C24.5095 41.4337 24.5095 41.3527 24.5095 41.1909V40.0578C24.5095 39.815 24.2768 39.4914 24.0441 39.3295ZM32.2663 14.0808C31.9559 13.919 31.6456 14.0808 31.5682 14.4046C31.4905 14.4856 31.4905 14.5663 31.4905 14.7283V15.8612C31.4905 16.185 31.7232 16.5086 31.9559 16.6705C38.0062 18.9363 41.1089 25.9768 38.8594 32.2082C37.6959 35.607 35.1361 38.1966 31.9559 39.4105C31.6456 39.5722 31.4905 39.815 31.4905 40.2198V41.3527C31.4905 41.6764 31.6456 41.9192 31.9559 42C32.0336 42 32.1886 42 32.2663 41.9192C39.6351 39.4914 43.6687 31.3179 41.3417 23.63C39.9454 19.0173 36.5323 15.5374 32.2663 14.0808Z" fill="#4441CF"/>
</g>
<defs>
<linearGradient id="paint0_linear_2626_16627" x1="13.8394" y1="6.19458" x2="42.1606" y2="49.8054" gradientUnits="userSpaceOnUse">
<stop offset="0.492708" stop-color="#E84142"/>
<stop offset="0.492808" stop-color="#414141"/>
</linearGradient>
<clipPath id="clip0_2626_16627">
<rect width="56" height="56" fill="white"/>
</clipPath>
</defs>
</svg>
