<svg width="56" height="56" viewBox="0 0 56 56" fill="none" xmlns="http://www.w3.org/2000/svg">
<g clip-path="url(#clip0_2626_16643)">
<path d="M28 2C42.3607 2 54 13.6416 54 28C54 42.3607 42.3607 54 28 54C13.6416 54 2 42.3596 2 28C2 13.6416 13.6416 2 28 2Z" fill="white"/>
<path d="M14.7925 7.66222C26.0258 0.367261 41.044 3.56102 48.3378 14.7925C55.6328 26.0258 52.4408 41.0427 41.2075 48.3377C29.9761 55.6315 14.9566 52.4398 7.66224 41.2075C0.368496 29.9761 3.56112 14.956 14.7925 7.66222Z" stroke="url(#paint0_linear_2626_16643)" stroke-width="3.5"/>
<path fill-rule="evenodd" clip-rule="evenodd" d="M30.4416 28.8261C30.3052 28.8363 29.6006 28.8782 28.029 28.8782C26.7789 28.8782 25.8914 28.8408 25.58 28.8261C20.7491 28.6147 17.1432 27.7778 17.1432 26.7758C17.1432 25.7738 20.7491 24.938 25.58 24.7231V27.9926C25.8959 28.0153 26.8005 28.0684 28.0506 28.0684C29.5506 28.0684 30.3018 28.0062 30.437 27.9938V24.7254C35.2577 24.9391 38.8556 25.776 38.8556 26.7758C38.8556 27.7755 35.2589 28.6124 30.437 28.825L30.4416 28.8261ZM30.4416 24.3872V21.4615H37.1692V17H18.8524V21.4615H25.5789V24.3861C20.1116 24.636 16 25.7138 16 27.0053C16 28.2969 20.1116 29.3735 25.5789 29.6246V39H30.4405V29.6212C35.8953 29.3713 40 28.2946 40 27.0042C40 25.7138 35.8987 24.6372 30.4405 24.3861L30.4416 24.3872Z" fill="#4441CF"/>
</g>
<defs>
<linearGradient id="paint0_linear_2626_16643" x1="13.8394" y1="6.19455" x2="42.1606" y2="49.8054" gradientUnits="userSpaceOnUse">
<stop offset="0.492708" stop-color="#E84142"/>
<stop offset="0.492808" stop-color="#414141"/>
</linearGradient>
<clipPath id="clip0_2626_16643">
<rect width="56" height="56" fill="white"/>
</clipPath>
</defs>
</svg>
