<svg width="56" height="56" viewBox="0 0 56 56" fill="none" xmlns="http://www.w3.org/2000/svg">
<g clip-path="url(#clip0_2626_16635)">
<path d="M28 1.99991C42.3607 1.99991 54 13.6415 54 27.9999C54 42.3606 42.3607 53.9999 28 53.9999C13.6416 53.9999 2 42.3595 2 27.9999C2 13.6415 13.6416 1.99991 28 1.99991Z" fill="white"/>
<path d="M14.7925 7.66222C26.0257 0.367261 41.0439 3.56102 48.3377 14.7925C55.6328 26.0258 52.4408 41.0427 41.2075 48.3377C29.9761 55.6315 14.9566 52.4398 7.66222 41.2075C0.36848 29.9761 3.56111 14.956 14.7925 7.66222Z" stroke="url(#paint0_linear_2626_16635)" stroke-width="3.5"/>
<g clip-path="url(#clip1_2626_16635)">
<path d="M42.837 28C42.837 36.1942 36.1943 42.8369 28 42.8369C19.8058 42.8369 13.1631 36.1942 13.1631 28C13.1631 19.8057 19.8058 13.163 28 13.163C36.1943 13.163 42.837 19.8057 42.837 28Z" fill="white" stroke="#383D51" stroke-width="0.5"/>
<path d="M23.6683 38.957C29.2766 38.957 29.2766 38.8735 30.2276 38.5913C31.4698 38.2223 26.719 34.9335 23.6683 34.9335C20.6177 34.9335 18.145 35.8341 18.145 36.945C18.145 38.056 20.6176 38.957 23.6683 38.957Z" fill="black"/>
<path d="M36.403 21.8491L36.6608 22.1271L36.4353 22.4318C29.1211 32.3212 24.9076 36.799 23.1199 36.1983C22.031 35.8325 20.9389 34.7324 19.847 33.1349C19.4631 32.5734 19.1027 31.9821 18.7748 31.3937C18.5565 31.0019 18.3717 30.6445 18.2758 30.4433C18.1755 30.2468 18.1032 30.0372 18.0608 29.8206L18.0559 29.7957C18.0388 29.7075 18.0325 29.6797 18.02 29.6316C17.5176 27.7396 17.5833 25.7415 18.2088 23.8865C18.8343 22.0315 19.992 20.4017 21.5376 19.2002C23.0832 17.9988 24.9482 17.2788 26.9002 17.1302C28.8521 16.9815 30.8047 17.4107 32.5143 18.3643L32.5524 18.3877C33.7583 19.2276 35.0418 20.3814 36.403 21.8491ZM32.0484 19.1515C30.495 18.2912 28.7229 17.9066 26.9526 18.0453C25.1823 18.184 23.4918 18.84 22.0912 19.9316C20.6907 21.0233 19.6419 22.5025 19.0752 24.1855C18.5085 25.8683 18.449 27.6807 18.904 29.3972C18.9238 29.4717 18.9327 29.5137 18.9537 29.6218L18.958 29.644C18.9857 29.7856 19.034 29.9225 19.1013 30.0501C19.1889 30.2337 19.3648 30.5738 19.5737 30.949C19.8888 31.5145 20.235 32.0824 20.6019 32.6191C21.5885 34.0624 22.567 35.0481 23.4111 35.3316C24.537 35.7098 28.7752 31.2233 35.4733 22.1949C34.2573 20.9111 33.1157 19.8966 32.0484 19.1515Z" fill="black"/>
<path d="M32.0483 19.1516C30.4948 18.2914 28.7228 17.9068 26.9525 18.0455C25.1822 18.1842 23.4917 18.8402 22.0912 19.9319C20.6907 21.0236 19.6419 22.5027 19.0752 24.1856C18.5086 25.8685 18.449 27.6808 18.904 29.3973C18.9238 29.4718 18.9327 29.5139 18.9536 29.6219L18.958 29.6441C18.9857 29.7856 19.034 29.9224 19.1013 30.05C19.1888 30.2336 19.3647 30.5737 19.5737 30.9489C19.8888 31.5144 20.235 32.0823 20.6019 32.619C21.5885 34.0623 22.567 35.048 23.4111 35.3315C24.537 35.7097 28.7752 31.2232 35.4733 22.1948C34.2572 20.9111 33.1156 19.8967 32.0483 19.1516Z" fill="#EC1C79"/>
<path d="M29.4838 38.8654C27.5124 38.8654 25.5853 38.2808 23.9461 37.1855C22.307 36.0903 21.0295 34.5336 20.2751 32.7123C19.5206 30.8909 19.3233 28.8868 19.7079 26.9533C20.0925 25.0198 21.0418 23.2437 22.4357 21.8498C23.8297 20.4558 25.6057 19.5065 27.5392 19.1219C29.4728 18.7373 31.4769 18.9347 33.2982 19.6891C35.1195 20.4435 36.6763 21.7211 37.7715 23.3602C38.8667 24.9994 39.4513 26.9265 39.4513 28.8979C39.4513 31.5414 38.4012 34.0767 36.5319 35.9459C34.6627 37.8152 32.1273 38.8654 29.4838 38.8654ZM29.4838 37.9513C31.2743 37.9513 33.0246 37.4203 34.5133 36.4255C36.002 35.4308 37.1624 34.0169 37.8476 32.3628C38.5327 30.7086 38.712 28.8883 38.3627 27.1323C38.0135 25.3761 37.1512 23.7631 35.8852 22.497C34.6192 21.2309 33.0061 20.3687 31.25 20.0193C29.4939 19.67 27.6737 19.8492 26.0195 20.5344C24.3653 21.2195 22.9514 22.3798 21.9566 23.8685C20.9618 25.3572 20.4308 27.1075 20.4307 28.8979C20.4307 30.0869 20.6649 31.264 21.1199 32.3624C21.5748 33.4608 22.2417 34.4588 23.0823 35.2994C23.923 36.1401 24.921 36.8069 26.0193 37.2619C27.1177 37.7168 28.295 37.951 29.4838 37.951V37.9513Z" fill="black"/>
<path d="M29.484 37.9508C31.2745 37.9508 33.0248 37.4199 34.5136 36.4251C36.0023 35.4303 37.1627 34.0165 37.8479 32.3623C38.5331 30.7081 38.7123 28.8878 38.363 27.1317C38.0137 25.3756 37.1516 23.7625 35.8855 22.4964C34.6194 21.2304 33.0063 20.3681 31.2502 20.0188C29.4941 19.6694 27.6739 19.8487 26.0197 20.5339C24.3655 21.2191 22.9516 22.3794 21.9568 23.8681C20.9621 25.3569 20.4311 27.1072 20.4311 28.8977C20.4311 30.0866 20.6652 31.2638 21.1201 32.3621C21.5751 33.4605 22.2419 34.4585 23.0825 35.2992C23.9232 36.1398 24.9212 36.8067 26.0196 37.2616C27.1179 37.7166 28.2952 37.9508 29.484 37.9508Z" fill="white"/>
<path fill-rule="evenodd" clip-rule="evenodd" d="M22.712 30.7522L21.5136 27.1421H22.5634L23.1881 29.2163L23.8795 27.1321H24.735L25.4264 29.2163L26.0511 27.1421H27.0804L25.8818 30.7522H25.0164L24.2944 28.6886L23.5774 30.7522H22.712ZM27.4744 30.7266V27.1421H30.3572V27.987H28.4576V28.5298H30.1783V29.3133H28.4576V29.8818H30.383V30.7267L27.4744 30.7266ZM31.7657 30.7266V28.0126H30.6904V27.1421H33.8346V28.0126H32.7592V30.7267L31.7657 30.7266ZM34.2698 30.7266V27.1421H35.2632V28.4837H36.5383V27.1421H37.5317V30.7267H36.5383V29.3645H35.2632V30.7267L34.2698 30.7266Z" fill="black"/>
<path d="M18.2816 26.0643C18.163 26.002 18.0736 25.8956 18.0325 25.7681C17.9914 25.6406 18.002 25.5021 18.0618 25.3822C18.1217 25.2623 18.2262 25.1707 18.3528 25.127C18.4794 25.0833 18.6182 25.0909 18.7392 25.1483L20.2023 25.8799C20.2632 25.9095 20.3177 25.9509 20.3625 26.0016C20.4073 26.0524 20.4416 26.1117 20.4634 26.1758C20.4852 26.2399 20.494 26.3077 20.4894 26.3753C20.4848 26.4429 20.4668 26.5089 20.4365 26.5695C20.4063 26.6301 20.3642 26.684 20.3129 26.7283C20.2616 26.7725 20.2021 26.8062 20.1377 26.8272C20.0733 26.8482 20.0054 26.8563 19.9379 26.851C19.8704 26.8456 19.8046 26.8269 19.7443 26.7959L18.2816 26.0643Z" fill="black"/>
<path d="M18.1131 28.4898C18.0511 28.4623 17.9953 28.4226 17.9488 28.3732C17.9023 28.3239 17.8661 28.2658 17.8422 28.2023C17.8183 28.1388 17.8073 28.0712 17.8098 28.0034C17.8123 27.9357 17.8282 27.8691 17.8566 27.8075C17.885 27.7459 17.9254 27.6906 17.9753 27.6447C18.0253 27.5989 18.0839 27.5634 18.1477 27.5404C18.2114 27.5174 18.2792 27.5073 18.3469 27.5106C18.4146 27.514 18.481 27.5308 18.5422 27.56L20.0053 28.2352C20.0673 28.2628 20.1231 28.3025 20.1696 28.3518C20.2161 28.4011 20.2524 28.4592 20.2762 28.5228C20.3 28.5862 20.3111 28.6538 20.3086 28.7216C20.3062 28.7894 20.2902 28.856 20.2618 28.9175C20.2334 28.9791 20.193 29.0345 20.1431 29.0803C20.0931 29.1262 20.0345 29.1616 19.9707 29.1847C19.907 29.2077 19.8392 29.2178 19.7715 29.2145C19.7037 29.2111 19.6374 29.1943 19.5762 29.1651L18.1131 28.4898Z" fill="black"/>
</g>
</g>
<defs>
<linearGradient id="paint0_linear_2626_16635" x1="13.8394" y1="6.19455" x2="42.1606" y2="49.8054" gradientUnits="userSpaceOnUse">
<stop offset="0.492708" stop-color="#E84142"/>
<stop offset="0.492808" stop-color="#414141"/>
</linearGradient>
<clipPath id="clip0_2626_16635">
<rect width="56" height="56" fill="white"/>
</clipPath>
<clipPath id="clip1_2626_16635">
<rect width="30" height="30" fill="white" transform="translate(13 13)"/>
</clipPath>
</defs>
</svg>
