<svg width="81" height="81" viewBox="0 0 81 81" fill="none" xmlns="http://www.w3.org/2000/svg">
<path d="M40.5 0C18.1617 0 0 18.1617 0 40.5C0 62.8383 18.1617 81 40.5 81C62.8383 81 81 62.8383 81 40.5C81 18.1617 62.8383 0 40.5 0Z" fill="#E45858"/>
<path d="M29.117 54.2364C28.4649 54.2743 27.8236 54.0576 27.3283 53.6318C26.3515 52.6492 26.3515 51.0622 27.3283 50.0796L48.717 28.6908C49.733 27.7401 51.3272 27.793 52.2778 28.8089C53.1375 29.7277 53.1876 31.1398 52.3952 32.1171L30.8804 53.6318C30.3915 54.0514 29.7605 54.2678 29.117 54.2364Z" fill="white"/>
<path d="M50.4808 54.2364C49.8199 54.2336 49.1865 53.9713 48.7172 53.5059L27.3284 32.117C26.4235 31.0602 26.5465 29.4698 27.6033 28.5648C28.5465 27.7571 29.9375 27.7571 30.8806 28.5648L52.3954 49.9536C53.4111 50.9045 53.4636 52.4988 52.5127 53.5145C52.4748 53.5549 52.4358 53.594 52.3954 53.6318C51.8686 54.0899 51.1752 54.3089 50.4808 54.2364Z" fill="white"/>
</svg>
