<svg width="40" height="40" viewBox="0 0 40 40" fill="none" xmlns="http://www.w3.org/2000/svg">
<g clip-path="url(#clip0_2446_20594)">
<path d="M39.7826 20.0004C39.7826 30.926 30.9257 39.783 20 39.783C9.07436 39.783 0.217407 30.926 0.217407 20.0004C0.217407 9.07473 9.07436 0.217773 20 0.217773C30.9257 0.217773 39.7826 9.07473 39.7826 20.0004Z" fill="white" stroke="#383D51" stroke-width="0.5"/>
<path d="M14.2244 34.6098C21.7021 34.6098 21.7021 34.4984 22.9701 34.1222C24.6263 33.6302 18.292 29.2451 14.2244 29.2451C10.157 29.2451 6.85992 30.4459 6.85992 31.9271C6.85992 33.4084 10.1568 34.6098 14.2244 34.6098Z" fill="black"/>
<path d="M31.204 11.7991L31.5478 12.1697L31.2471 12.5759C21.4948 25.7619 15.8768 31.7322 13.4932 30.9313C12.0413 30.4436 10.5852 28.9767 9.12932 26.8467C8.61746 26.0981 8.13699 25.3097 7.6998 24.5252C7.4087 24.0028 7.1623 23.5262 7.03449 23.2579C6.90073 22.9959 6.80423 22.7166 6.74777 22.4278L6.74121 22.3946C6.7184 22.2769 6.70996 22.2399 6.6934 22.1758C6.02352 19.6531 6.11106 16.9889 6.94509 14.5156C7.77911 12.0423 9.32271 9.86917 11.3835 8.2672C13.4443 6.66525 15.931 5.70533 18.5336 5.50714C21.1362 5.30894 23.7396 5.88124 26.0191 7.15266L26.0698 7.18391C27.6778 8.3037 29.3891 9.84212 31.204 11.7991ZM25.3979 8.20219C23.3266 7.05523 20.9639 6.54234 18.6035 6.72729C16.2431 6.91224 13.9891 7.78685 12.1217 9.24238C10.2543 10.698 8.85584 12.6703 8.10031 14.9142C7.34475 17.158 7.26536 19.5745 7.87199 21.8632C7.8984 21.9625 7.91027 22.0186 7.93824 22.1626L7.94402 22.1922C7.98093 22.3811 8.04531 22.5635 8.13511 22.7338C8.25183 22.9786 8.48637 23.432 8.76497 23.9322C9.18515 24.6862 9.64671 25.4434 10.1359 26.1591C11.4513 28.0834 12.756 29.3977 13.8815 29.7758C15.3826 30.28 21.0337 24.2979 29.9644 12.2601C28.3431 10.5484 26.821 9.19578 25.3979 8.20219Z" fill="black"/>
<path d="M25.3978 8.20214C23.3265 7.05523 20.9638 6.54238 18.6033 6.72735C16.243 6.91233 13.989 7.78695 12.1216 9.24254C10.2543 10.6981 8.85585 12.6704 8.10032 14.9142C7.34477 17.158 7.26535 19.5745 7.87196 21.8631C7.89837 21.9625 7.91025 22.0185 7.93821 22.1626L7.94399 22.1921C7.98093 22.3809 8.04531 22.5632 8.13509 22.7334C8.2518 22.9782 8.48634 23.4317 8.76489 23.9319C9.18506 24.6859 9.64663 25.4431 10.1358 26.1587C11.4513 28.0831 12.756 29.3973 13.8815 29.7754C15.3826 30.2797 21.0337 24.2976 29.9645 12.2598C28.343 10.5481 26.8208 9.19559 25.3978 8.20214Z" fill="#EC1C79"/>
<path d="M21.9784 34.4873C19.3499 34.4873 16.7804 33.7078 14.5948 32.2474C12.4094 30.7872 10.706 28.7115 9.70006 26.2831C8.69416 23.8546 8.43098 21.1825 8.9438 18.6045C9.45658 16.0265 10.7223 13.6584 12.5809 11.7998C14.4396 9.94117 16.8076 8.67539 19.3856 8.1626C21.9637 7.6498 24.6359 7.91298 27.0642 8.91891C29.4927 9.92474 31.5683 11.6282 33.0287 13.8137C34.4889 15.9993 35.2684 18.5687 35.2684 21.1973C35.2684 24.722 33.8682 28.1023 31.3759 30.5946C28.8835 33.087 25.5031 34.4873 21.9784 34.4873ZM21.9784 33.2685C24.3657 33.2685 26.6995 32.5605 28.6844 31.2341C30.6694 29.9079 32.2165 28.0226 33.1301 25.8171C34.0436 23.6115 34.2827 21.1845 33.8169 18.8431C33.3513 16.5016 32.2016 14.3508 30.5136 12.6627C28.8255 10.9746 26.6748 9.825 24.3334 9.35917C21.9919 8.89343 19.5649 9.13239 17.3593 10.046C15.1537 10.9594 13.2685 12.5065 11.9421 14.4914C10.6157 16.4764 9.90771 18.81 9.90763 21.1973C9.90763 22.7826 10.2199 24.3521 10.8265 25.8166C11.4331 27.2812 12.3222 28.6118 13.4431 29.7326C14.564 30.8535 15.8947 31.7426 17.3591 32.3493C18.8236 32.9559 20.3933 33.268 21.9784 33.268V33.2685Z" fill="black"/>
<path d="M21.9787 33.2673C24.366 33.2673 26.6997 32.5594 28.6848 31.233C30.6697 29.9067 32.2169 28.0215 33.1305 25.8159C34.0441 23.6103 34.2831 21.1833 33.8174 18.8418C33.3516 16.5003 32.2021 14.3495 30.514 12.6614C28.8259 10.9734 26.6751 9.82371 24.3336 9.35797C21.9922 8.89214 19.5652 9.13119 17.3596 10.0448C15.154 10.9583 13.2688 12.5055 11.9424 14.4904C10.6161 16.4755 9.90808 18.8091 9.90808 21.1965C9.90808 22.7816 10.2203 24.3513 10.8269 25.8157C11.4335 27.2802 12.3225 28.6109 13.4434 29.7318C14.5643 30.8527 15.895 31.7418 17.3595 32.3484C18.8239 32.955 20.3936 33.2673 21.9787 33.2673Z" fill="white"/>
<path fill-rule="evenodd" clip-rule="evenodd" d="M12.9493 23.6696L11.3515 18.8561H12.7512L13.5842 21.6217L14.506 18.8428H15.6466L16.5685 21.6217L17.4015 18.8561H18.7738L17.1758 23.6696H16.0218L15.0592 20.9181L14.1032 23.6696H12.9493ZM19.2992 23.6355V18.8561H23.1429V19.9827H20.6101V20.7064H22.9045V21.7511H20.6101V22.509H23.1774V23.6356L19.2992 23.6355ZM25.0209 23.6355V20.0169H23.5872V18.8561H27.7795V20.0169H26.3456V23.6356L25.0209 23.6355ZM28.3598 23.6355V18.8561H29.6843V20.6449H31.3845V18.8561H32.709V23.6356H31.3845V21.8194H29.6843V23.6356L28.3598 23.6355Z" fill="black"/>
<path d="M7.04215 17.419C6.88404 17.3359 6.76481 17.1941 6.71003 17.0241C6.65524 16.8541 6.66927 16.6694 6.74911 16.5095C6.82893 16.3497 6.9682 16.2275 7.13705 16.1693C7.3059 16.1109 7.49087 16.1211 7.65231 16.1976L9.60312 17.1731C9.68433 17.2126 9.75694 17.2678 9.81668 17.3354C9.87642 17.4032 9.92216 17.4821 9.9512 17.5676C9.98025 17.6531 9.99198 17.7435 9.9859 17.8337C9.97972 17.9238 9.95572 18.0118 9.91538 18.0926C9.87503 18.1734 9.81894 18.2453 9.75059 18.3043C9.68216 18.3633 9.60277 18.4081 9.51694 18.4361C9.43111 18.4642 9.34059 18.475 9.25051 18.4679C9.16051 18.4607 9.07277 18.4358 8.99242 18.3945L7.04215 17.419Z" fill="black"/>
<path d="M6.81745 20.6532C6.73486 20.6164 6.6604 20.5635 6.5984 20.4977C6.5364 20.4319 6.48808 20.3544 6.45627 20.2698C6.42445 20.1852 6.40976 20.095 6.41305 20.0046C6.41634 19.9143 6.43754 19.8255 6.47543 19.7434C6.51333 19.6612 6.56714 19.5875 6.63377 19.5264C6.70039 19.4652 6.77849 19.4179 6.86354 19.3872C6.94859 19.3565 7.03889 19.3431 7.12921 19.3475C7.21951 19.352 7.30804 19.3744 7.38963 19.4133L9.34041 20.3137C9.42302 20.3505 9.49746 20.4033 9.55946 20.4691C9.62146 20.5349 9.66981 20.6124 9.70163 20.6971C9.73337 20.7817 9.74807 20.8718 9.74485 20.9622C9.74155 21.0525 9.72033 21.1413 9.68241 21.2234C9.6445 21.3055 9.59068 21.3793 9.52407 21.4405C9.45746 21.5016 9.37937 21.5488 9.29433 21.5796C9.20928 21.6103 9.11894 21.6238 9.02868 21.6193C8.93833 21.6148 8.84981 21.5925 8.76824 21.5535L6.81745 20.6532Z" fill="black"/>
</g>
<defs>
<clipPath id="clip0_2446_20594">
<rect width="40" height="40" fill="white"/>
</clipPath>
</defs>
</svg>