<svg width="36" height="36" viewBox="0 0 36 36" fill="none" xmlns="http://www.w3.org/2000/svg">
<path d="M18 36C27.9751 36 36 27.9751 36 18C36 8.02494 27.9751 0 18 0C8.02494 0 0 8.02494 0 18C0 27.9751 8.02494 36 18 36Z" fill="#2775CA"/>
<path d="M22.95 20.85C22.95 18.225 21.375 17.325 18.225 16.9501C15.975 16.65 15.525 16.0501 15.525 14.9999C15.525 13.9498 16.2751 13.275 17.775 13.275C19.125 13.275 19.8751 13.725 20.25 14.85C20.3251 15.075 20.5501 15.2249 20.7751 15.2249H21.9749C22.275 15.2249 22.5 14.9999 22.5 14.7001V14.625C22.1999 12.9749 20.8499 11.7 19.125 11.5501V9.75005C19.125 9.44999 18.9 9.22499 18.5251 9.14993H17.4001C17.1 9.14993 16.875 9.37493 16.7999 9.75005V11.475C14.5499 11.7751 13.1251 13.275 13.1251 15.1501C13.1251 17.6251 14.625 18.6 17.775 18.9751C19.8751 19.35 20.5501 19.8 20.5501 21.0001C20.5501 22.2001 19.4999 23.0251 18.0751 23.0251C16.1249 23.0251 15.4499 22.2 15.2249 21.075C15.1501 20.7751 14.9251 20.625 14.7001 20.625H13.4249C13.1251 20.625 12.9001 20.85 12.9001 21.15V21.2251C13.1999 23.1 14.4 24.45 16.875 24.8251V26.6251C16.875 26.925 17.1 27.15 17.4749 27.225H18.5999C18.9 27.225 19.125 27 19.2001 26.6251V24.8251C21.4501 24.45 22.95 22.875 22.95 20.85Z" fill="white"/>
<path d="M14.1751 28.725C8.32506 26.6251 5.325 20.1001 7.50012 14.325C8.62512 11.175 11.1001 8.77501 14.1751 7.65001C14.4751 7.50007 14.6251 7.27507 14.6251 6.89995V5.85C14.6251 5.54994 14.4751 5.32494 14.1751 5.25006C14.1 5.25006 13.9501 5.25006 13.875 5.32494C6.75006 7.57495 2.85 15.1501 5.1 22.2751C6.45 26.475 9.67506 29.7001 13.875 31.0501C14.1751 31.2 14.4751 31.0501 14.55 30.75C14.6251 30.6751 14.6251 30.6001 14.6251 30.4501V29.4C14.6251 29.175 14.4001 28.8751 14.1751 28.725ZM22.1251 5.32494C21.8251 5.175 21.525 5.32494 21.4501 5.625C21.3751 5.70006 21.3751 5.77494 21.3751 5.92506V6.97501C21.3751 7.27507 21.6001 7.57495 21.8251 7.72507C27.6751 9.82496 30.6751 16.35 28.5 22.1251C27.375 25.2751 24.9 27.6751 21.8251 28.8001C21.525 28.95 21.3751 29.175 21.3751 29.5501V30.6001C21.3751 30.9002 21.525 31.1251 21.8251 31.2C21.9001 31.2 22.0501 31.2 22.1251 31.1252C29.2501 28.8751 33.1501 21.3 30.9001 14.175C29.5501 9.90002 26.25 6.67495 22.1251 5.32494Z" fill="white"/>
</svg>
