<svg width="100" height="100" viewBox="0 0 100 100" fill="none" xmlns="http://www.w3.org/2000/svg">
<rect width="100" height="100" rx="50" fill="#50AF95"/>
<path fill-rule="evenodd" clip-rule="evenodd" d="M21.0544 14.4558L4.23967 49.4248C4.1757 49.5548 4.15502 49.702 4.18065 49.8446C4.20628 49.9873 4.27688 50.118 4.38212 50.2176L49.2598 93.5567C49.3873 93.6799 49.5575 93.749 49.7348 93.7497C49.912 93.7504 50.0827 93.6826 50.2111 93.5604L95.4239 50.5737C95.5299 50.4749 95.6015 50.3447 95.6283 50.2022C95.655 50.0598 95.6355 49.9125 95.5725 49.782L79.0298 14.6835C78.9764 14.5657 78.8902 14.4656 78.7815 14.3955C78.6728 14.3253 78.5462 14.2878 78.4168 14.2877L21.6757 14.0675C21.5457 14.0653 21.4179 14.1009 21.3076 14.1698C21.1974 14.2387 21.1094 14.338 21.0544 14.4558Z" fill="#50AF95"/>
<path fill-rule="evenodd" clip-rule="evenodd" d="M55.6794 53.2222C55.3559 53.2452 53.6847 53.3384 49.9577 53.3239C46.9933 53.3124 44.8889 53.2153 44.1506 53.1774C32.6966 52.629 24.1534 50.6016 24.1626 48.2139C24.1719 45.8262 32.7306 43.8679 44.1886 43.4003L44.1583 51.1913C44.9073 51.2481 47.052 51.3831 50.0163 51.3946C53.5736 51.4084 55.3555 51.2671 55.6763 51.2387L55.7066 43.4504C67.1363 44.0041 75.6607 46.0315 75.6514 48.4138C75.6422 50.7961 67.1051 52.7572 55.6686 53.2194L55.6794 53.2222ZM55.7205 42.6447L55.7475 35.673L71.7013 35.7349L71.7426 25.1035L28.3062 24.9349L28.2649 35.5663L44.216 35.6282L44.189 42.5972C31.2215 43.1425 21.4614 45.6729 21.4495 48.7505C21.4375 51.828 31.1777 54.4314 44.1405 55.08L44.0538 77.4207L55.5826 77.4655L55.6694 55.1167C68.6072 54.5713 78.3511 52.0436 78.3631 48.9687C78.375 45.8938 68.6591 43.2905 55.7178 42.642L55.7205 42.6447Z" fill="white"/>
</svg>
