<svg width="17" height="19" viewBox="0 0 17 19" fill="none" xmlns="http://www.w3.org/2000/svg">
    <path d="M12.4431 12.1508H0.900391V18.5893H12.4431V12.1508Z" fill="white"/>
    <path d="M13.1704 10.4057H0.203125V11.5814H13.1704V10.4057Z" fill="white"/>
    <path fill-rule="evenodd" clip-rule="evenodd" d="M9.64056 8.38034L10.6744 6.77066L10.2083 6.4944L8.92027 7.01633C8.73464 7.09157 8.56744 7.12805 8.40879 7.12805C7.99269 7.12805 7.66513 6.88295 7.40749 6.37888C7.28608 6.14138 7.27297 5.86664 7.37025 5.60539C7.44549 5.4038 7.5821 5.21912 7.75291 5.07947L7.08544 4.6723C7.05086 4.65121 7.02255 4.62366 7.0007 4.5925L6.90171 4.5336L4.12695 8.68111L9.46538 8.65318L9.64056 8.38034Z" fill="white"/>
    <path fill-rule="evenodd" clip-rule="evenodd" d="M10.9448 8.38022H10.3184L10.1244 8.68232H10.5367V9.25232H3.87491L3.05677 9.25669L3.05981 9.25232H2.83846V8.68232H3.44095L3.64311 8.38022H2.42141L0.560547 9.83543H12.8171L10.9448 8.38022Z" fill="white"/>
    <path fill-rule="evenodd" clip-rule="evenodd" d="M12.4144 1.65033C11.686 1.65033 11.0926 1.54241 10.1863 1.3298C10.1287 1.3165 10.0702 1.30966 10.0122 1.30966C9.60811 1.30966 9.16503 1.6566 8.82702 2.238C8.42137 2.9353 8.28837 3.169 8.15518 3.40308C8.03833 3.60847 7.92129 3.81405 7.62109 4.33123L8.34385 4.77203L8.75748 4.61281C8.83538 4.54593 8.98453 4.35308 9.10594 4.19633C9.22773 4.03844 9.35389 3.87542 9.47226 3.74774C9.56916 3.64305 9.67974 3.53684 9.82775 3.47053C9.92541 3.42664 10.0387 3.4046 10.1648 3.4046C10.4747 3.4046 10.8988 3.55128 11.0751 3.82336C11.1199 3.89271 11.1327 3.9784 11.1093 4.05782C11.0863 4.13724 11.0295 4.20279 10.9543 4.23718L9.00125 5.12904C8.97275 5.14177 8.94159 5.15412 8.90663 5.16742L8.35145 5.39257L8.27602 5.42316C8.1149 5.48871 7.96613 5.64166 7.90552 5.80411C7.86334 5.91716 7.86695 6.02318 7.91616 6.11932C8.14036 6.55803 8.32922 6.55803 8.40997 6.55803C8.49281 6.55803 8.59294 6.53466 8.70732 6.48811L10.6902 5.6846C11.1274 5.50733 11.5336 5.44729 12.0012 5.49004C12.0542 5.49479 12.1081 5.49745 12.163 5.49745C12.5493 5.49745 12.913 5.37338 13.1602 5.15678C13.2778 5.05399 13.3844 4.97381 13.5157 4.88926L14.8717 4.01716L13.4746 1.5977C13.0768 1.63019 12.7306 1.65033 12.4144 1.65033Z" fill="white"/>
    <path d="M14.7535 4.81907e-05L13.5957 0.668335L15.6369 4.20487L16.7948 3.53659L14.7535 4.81907e-05Z" fill="white"/>
</svg>