<svg width="19" height="17" viewBox="0 0 19 17" fill="none" xmlns="http://www.w3.org/2000/svg">
<path d="M11.3496 10.6059C11.3496 11.4488 12.0353 12.1345 12.8783 12.1345H18.377V9.07727H12.8782C12.0353 9.07727 11.3496 9.76299 11.3496 10.6059ZM13.6829 10.0143C14.0096 10.3411 14.0096 10.8708 13.6829 11.1975C13.3562 11.5242 12.8264 11.5242 12.4997 11.1975C12.173 10.8707 12.173 10.341 12.4997 10.0143C12.8264 9.68759 13.3562 9.68759 13.6829 10.0143Z" fill="#E5E4FF"/>
<path d="M12.8781 13.289C11.3986 13.289 10.1949 12.0854 10.1949 10.6059C10.1949 9.12638 11.3986 7.92273 12.8781 7.92273H18.3769V5.58241C18.3769 4.65557 17.6229 3.90155 16.696 3.90155H2.59515C1.80079 3.90155 1.15454 3.25529 1.15454 2.46094C1.15454 2.14214 0.896066 1.88367 0.577269 1.88367C0.258472 1.88367 0 2.14214 0 2.46094V14.4049C0 15.8358 1.16417 17 2.59515 17H16.696C17.6229 17 18.3769 16.246 18.3769 15.3191V13.289H12.8781Z" fill="#E5E4FF"/>
<path d="M2.30899 2.46094C2.30899 2.61867 2.43733 2.74701 2.59507 2.74701H16.4673V1.68086C16.4673 0.754058 15.7133 0 14.7864 0H2.59507C1.88968 0 1.24949 0.283259 0.78125 0.741538C1.6403 0.842885 2.30899 1.57508 2.30899 2.46094Z" fill="#E5E4FF"/>
</svg>
