<svg width="210" height="210" viewBox="0 0 210 210" fill="none" xmlns="http://www.w3.org/2000/svg">
<rect width="210" height="210" rx="105" fill="white"/>
<path d="M149.157 64.3813L145.312 68.2254C154.485 78.2562 159.572 91.3564 159.572 104.949C159.572 118.541 154.485 131.641 145.312 141.672L149.157 145.516C159.357 134.452 165.021 119.953 165.021 104.904C165.021 89.8546 159.357 75.3563 149.157 64.2916V64.3813Z" fill="#5A5564"/>
<path d="M68.3165 64.7145C78.3473 55.542 91.4476 50.4553 105.04 50.4553C118.632 50.4553 131.733 55.542 141.763 64.7145L145.607 60.8704C134.543 50.6696 120.044 45.0062 104.995 45.0062C89.9457 45.0062 75.4475 50.6696 64.3828 60.8704L68.3165 64.7145Z" fill="#5A5564"/>
<path d="M64.7121 141.711C55.5505 131.682 50.4706 118.59 50.4706 105.006C50.4706 91.4231 55.5505 78.3308 64.7121 68.3023L60.8681 64.4582C50.6673 75.5229 45.0039 90.0211 45.0039 105.071C45.0039 120.12 50.6673 134.618 60.8681 145.683L64.7121 141.711Z" fill="#5A5564"/>
<path d="M141.713 145.26C131.682 154.432 118.582 159.519 104.989 159.519C91.397 159.519 78.2967 154.432 68.2659 145.26L64.4219 149.104C75.4865 159.305 89.9848 164.968 105.034 164.968C120.084 164.968 134.582 159.305 145.646 149.104L141.713 145.26Z" fill="#5A5564"/>
<path d="M129.269 92.1737C128.5 84.1525 121.581 81.4617 112.829 80.6416V69.5964H106.064V80.4366C104.282 80.4366 102.463 80.4366 100.656 80.4366V69.5964H93.942V80.7185H80.2188V87.9581C80.2188 87.9581 85.216 87.8684 85.1391 87.9581C86.0402 87.859 86.9445 88.1135 87.6616 88.668C88.3787 89.2226 88.8525 90.0338 88.9832 90.9308V121.376C88.9639 121.692 88.8814 122.001 88.7406 122.285C88.5997 122.569 88.4033 122.822 88.1631 123.029C87.9274 123.239 87.6515 123.4 87.352 123.501C87.0525 123.603 86.7357 123.642 86.4205 123.618C86.5102 123.695 81.5001 123.618 81.5001 123.618L80.2188 131.703H93.8138V143.005H100.579V131.87H105.987V142.954H112.765V131.78C124.195 131.088 132.165 128.269 133.164 117.57C133.971 108.959 129.922 105.115 123.451 103.565C127.385 101.63 129.82 98.0423 129.269 92.1737ZM119.787 116.237C119.787 124.643 105.384 123.682 100.797 123.682V108.767C105.384 108.78 119.787 107.46 119.787 116.237ZM116.647 95.2233C116.647 102.911 104.628 101.976 100.81 101.976V88.4194C104.628 88.4194 116.647 87.2149 116.647 95.2233Z" fill="#F09242"/>
<path d="M104.987 175C91.1436 174.997 77.6116 170.89 66.1021 163.198C54.5926 155.505 45.6226 144.572 40.326 131.782C35.0295 118.992 33.6443 104.918 36.3457 91.3406C39.0471 77.7631 45.7136 65.2915 55.5026 55.5026C65.2915 45.7136 77.7631 39.0471 91.3406 36.3457C104.918 33.6443 118.992 35.0295 131.782 40.326C144.572 45.6226 155.505 54.5926 163.198 66.1021C170.89 77.6116 174.997 91.1436 175 104.987C175.002 114.182 173.192 123.287 169.674 131.782C166.156 140.277 160.999 147.996 154.497 154.497C147.996 160.999 140.277 166.156 131.782 169.674C123.287 173.192 114.182 175.002 104.987 175V175ZM104.987 40.4586C92.233 40.4687 79.7681 44.2597 69.1679 51.3524C58.5677 58.4451 50.3082 68.5211 45.4332 80.3069C40.5582 92.0927 39.2867 105.059 41.7792 117.567C44.2718 130.076 50.4166 141.564 59.437 150.581C68.4574 159.598 79.9484 165.738 92.4577 168.226C104.967 170.713 117.933 169.437 129.717 164.557C141.501 159.677 151.573 151.414 158.662 140.811C165.75 130.208 169.536 117.741 169.541 104.987C169.545 96.5101 167.877 88.1154 164.634 80.2832C161.391 72.4511 156.635 65.335 150.64 59.342C144.644 53.3489 137.527 48.5965 129.693 45.3563C121.86 42.1161 113.464 40.4518 104.987 40.4586V40.4586Z" fill="#282138"/>
</svg>
