<svg width="8" height="7" viewBox="0 0 8 7" fill="none" xmlns="http://www.w3.org/2000/svg">
<path d="M7.76451 3.49262L5.09941 0.827511C5.01472 0.743113 4.88768 0.717347 4.77664 0.763255C4.66589 0.808859 4.59393 0.917245 4.59393 1.03688V2.22256C2.89004 2.29244 1.40351 3.44288 0.927338 5.0914C0.721238 5.80624 0.73723 6.38693 0.743143 6.60577L0.744329 6.66322C0.744329 6.79647 0.833455 6.91345 0.961679 6.94869C0.988038 6.9558 1.01438 6.95934 1.04045 6.95934C1.14291 6.95934 1.24062 6.90574 1.29482 6.81484C2.46776 4.84325 4.02181 4.78728 4.59393 4.84296V6.36711C4.59393 6.48675 4.66589 6.59513 4.77664 6.64074C4.88768 6.68693 5.01472 6.66117 5.09941 6.57648L7.76451 3.91137C7.88029 3.79555 7.88029 3.60839 7.76451 3.49262Z" fill="#2ECC71"/>
</svg>
