<svg width="23" height="23" viewBox="0 0 23 23" fill="none" xmlns="http://www.w3.org/2000/svg">
    <path d="M1.67714 23H4.07306C4.99789 23 5.75021 22.2477 5.75021 21.3229V20.9722C7.19926 21.7101 10.4903 23 15.8428 23H17.3762C19.5977 23 21.4837 21.4111 21.8604 19.2222L22.9337 12.9931C23.1618 11.6639 22.7948 10.3126 21.9284 9.28337C21.063 8.25604 19.7941 7.66667 18.4495 7.66667H14.1024C14.3736 6.93833 14.6448 5.8765 14.6448 4.55208C14.6448 0.951625 12.6073 0 11.5301 0C9.54055 0 9.3738 1.85533 9.3738 3.59375C9.3738 5.7155 6.99417 7.47883 5.73775 8.26275C5.67354 7.39642 4.95572 6.70833 4.07306 6.70833H1.67714C0.752319 6.70833 0 7.46062 0 8.38542V21.3229C0 22.2477 0.752319 23 1.67714 23ZM10.8113 3.59375C10.8113 1.4375 11.1765 1.4375 11.5301 1.4375C12.2048 1.4375 13.2073 2.26742 13.2073 4.55208C13.2073 6.67575 12.3754 7.97717 12.3697 7.98675C12.223 8.20717 12.2086 8.49083 12.3342 8.72467C12.4588 8.9585 12.7032 9.10417 12.9677 9.10417H18.4495C19.3696 9.10417 20.2369 9.50667 20.8292 10.2091C21.4224 10.9125 21.6735 11.8383 21.5173 12.7477L20.4439 18.9769C20.1861 20.4738 18.8961 21.5615 17.3762 21.5615H15.8428C9.323 21.5625 6.05689 19.5232 5.75021 19.321V9.91971C6.54853 9.49612 10.8113 7.07154 10.8113 3.59375ZM1.43755 8.38542C1.43755 8.25317 1.54489 8.14583 1.67714 8.14583H4.07306C4.20532 8.14583 4.31266 8.25317 4.31266 8.38542V21.3229C4.31266 21.4532 4.2034 21.5625 4.07306 21.5625H1.67714C1.54489 21.5625 1.43755 21.4552 1.43755 21.3229V8.38542Z" fill="white" fill-opacity="0.7"/>
</svg>