<svg width="82" height="24" viewBox="0 0 82 24" fill="none" xmlns="http://www.w3.org/2000/svg">
<path d="M0 12C0 5.3726 5.3726 0 12 0C18.6274 0 24 5.3726 24 12C24 18.6274 18.6274 24 12 24C5.3726 24 0 18.6274 0 12Z" fill="#006AE3"/>
<path d="M11.5059 17.0592V7.0752H12.593V17.0592H11.5059Z" fill="white"/>
<path d="M17.0367 10.4016L13.6794 11.292L12.9307 7.80716L13.929 7.58156L14.3225 9.23276C14.3225 9.23276 15.2296 7.74476 14.0202 6.20396C13.3074 5.41196 12.9691 5.37836 12.1699 5.25356C11.4668 5.15276 9.83259 5.39036 9.34544 7.29836C9.13904 8.52716 9.37184 9.43676 10.9557 10.6272L10.8669 11.952C10.8669 11.952 9.09829 10.7064 8.64229 9.83276C8.28954 9.14156 7.68479 7.77596 8.77669 5.87516C9.36464 4.92477 10.5237 4.01277 12.5659 4.10877C13.593 4.15197 16.1007 5.40716 15.712 8.33996C15.6448 8.88956 15.3592 9.62156 15.3592 9.62156L16.7367 9.31436L17.0367 10.4016Z" fill="white"/>
<path d="M15.12 18.2135C14.5056 19.1471 13.3226 20.0279 11.2852 19.8791C10.2581 19.8095 7.78632 18.4871 8.25187 15.5663C8.33347 15.0191 8.63822 14.2967 8.63822 14.2967L7.25357 14.5655L6.98242 13.4735L10.3637 12.6719L11.0212 16.1759L10.0157 16.3751L9.66532 14.7119C9.66532 14.7119 8.71982 16.1735 9.88612 17.7479C10.5772 18.5591 10.9132 18.5999 11.7123 18.7463C12.4107 18.8663 14.0521 18.6695 14.5896 16.7759C14.8272 15.5543 14.6184 14.6375 13.0682 13.4039L13.193 12.0815C13.193 12.0815 14.928 13.3727 15.36 14.2583C15.6911 14.9615 16.2599 16.3439 15.12 18.2135Z" fill="white"/>
<path d="M30 7.22531H33.0279L34.9407 13.3883C35.1039 13.9238 35.2157 14.5575 35.2761 15.289H35.3306C35.397 14.6162 35.527 13.9826 35.7204 13.3883L37.5969 7.22531H40.5613L36.2733 19.5805C35.8805 20.7236 35.3184 21.5792 34.5872 22.1475C33.8619 22.7158 33.0128 23 32.0398 23C31.5623 23 31.0939 22.9445 30.6346 22.8334V20.4623C30.967 20.5472 31.3296 20.5897 31.7225 20.5897C32.212 20.5897 32.6381 20.4264 33.0007 20.0998C33.3694 19.7797 33.6564 19.2931 33.8619 18.6399L34.0251 18.101L30 7.22531ZM46.2183 9.14571C45.632 9.14571 45.1727 9.34824 44.8403 9.75321C44.5079 10.1517 44.3175 10.7199 44.2691 11.458H48.1492C48.1371 10.7199 47.9588 10.1517 47.6144 9.75321C47.2698 9.34824 46.8045 9.14571 46.2183 9.14571ZM46.6081 18.3753C44.9762 18.3753 43.7011 17.8887 42.7824 16.9155C41.8637 15.9422 41.4044 14.564 41.4044 12.7808C41.4044 10.9453 41.8275 9.52783 42.6736 8.52846C43.5258 7.52258 44.7013 7.01956 46.2001 7.01956C47.6325 7.01956 48.7475 7.46052 49.5453 8.34228C50.3431 9.22411 50.7419 10.4423 50.7419 11.9969V13.447H44.2057C44.2359 14.2962 44.4686 14.9592 44.9038 15.436C45.3389 15.9128 45.9493 16.1512 46.735 16.1512C47.3454 16.1512 47.9226 16.0826 48.4665 15.9455C49.0104 15.8083 49.5785 15.5895 50.1708 15.289V17.6014C49.6874 17.8626 49.1706 18.0553 48.6206 18.1794C48.0706 18.31 47.3998 18.3753 46.6081 18.3753ZM59.4268 18.1794L58.8917 16.6901H58.8194C58.3539 17.3237 57.8732 17.7646 57.3779 18.0129C56.8885 18.2545 56.248 18.3753 55.4563 18.3753C54.4829 18.3753 53.7154 18.0749 53.1534 17.4739C52.5973 16.873 52.3194 16.0174 52.3194 14.9069C52.3194 13.7442 52.6941 12.8885 53.4435 12.3399C54.1991 11.7846 55.3349 11.4776 56.8521 11.4188L58.6105 11.3601V10.88C58.6105 9.76955 58.0847 9.2143 57.0337 9.2143C56.2235 9.2143 55.2719 9.47888 54.1779 10.008L53.2621 7.98955C54.4285 7.32987 55.7222 7 57.1425 7C58.5018 7 59.5448 7.32005 60.2696 7.96016C60.995 8.60034 61.3577 9.57355 61.3577 10.88V18.1794H59.4268ZM58.6105 13.1041L57.541 13.1433C56.7373 13.1694 56.1392 13.3262 55.746 13.6136C55.3535 13.901 55.1566 14.3386 55.1566 14.9265C55.1566 15.7691 55.6041 16.1904 56.4986 16.1904C57.1392 16.1904 57.6497 15.9912 58.0304 15.5927C58.4176 15.1943 58.6105 14.6653 58.6105 14.0055V13.1041ZM69.8703 7.01956C70.2449 7.01956 70.5559 7.04902 70.8039 7.10778L70.5957 9.90994C70.3716 9.84466 70.0997 9.81198 69.7794 9.81198C68.8969 9.81198 68.208 10.0569 67.7126 10.5468C67.2233 11.0367 66.9786 11.7226 66.9786 12.6044V18.1794H64.2136V7.22531H66.3076L66.7154 9.06738H66.8513C67.1656 8.45336 67.5886 7.96016 68.1204 7.58786C68.6582 7.20905 69.2417 7.01956 69.8703 7.01956ZM82 18.1794H79.235V11.7814C79.235 10.991 79.105 10.3998 78.8451 10.008C78.5851 9.60953 78.1714 9.4103 77.6031 9.4103C76.8293 9.4103 76.2703 9.69115 75.9262 10.2529C75.5814 10.8081 75.409 11.7324 75.409 13.0257V18.1794H72.644V7.22531H74.7565L75.1285 8.62643H75.2823C75.5907 8.09733 76.0137 7.69895 76.5515 7.43114C77.0952 7.15673 77.7119 7.01956 78.4008 7.01956C79.5791 7.01956 80.4736 7.36578 81.0843 8.0582C81.695 8.74403 82 9.73687 82 11.0367V18.1794Z" fill="#393F56"/>
</svg>
