<svg width="36" height="36" viewBox="0 0 36 36" fill="none" xmlns="http://www.w3.org/2000/svg">
<path fill-rule="evenodd" clip-rule="evenodd" d="M18 0C27.9396 0 36 8.0604 36 18C36 27.9396 27.9396 36 18 36C8.0604 36 0 27.9396 0 18C0 8.0604 8.0604 0 18 0Z" fill="#006AE3"/>
<path d="M17.2584 25.5888V10.6128H18.8892V25.5888H17.2584Z" fill="white"/>
<path d="M25.56 15.6024L20.5236 16.938L19.4004 11.7108L20.898 11.3724L21.4884 13.8492C21.4884 13.8492 22.8492 11.6172 21.0348 9.306C19.9656 8.118 19.458 8.0676 18.2592 7.8804C17.2044 7.7292 14.7528 8.0856 14.022 10.9476C13.7124 12.7908 14.0616 14.1552 16.4376 15.9408L16.3044 17.928C16.3044 17.928 13.6512 16.0596 12.9672 14.7492C12.438 13.7124 11.5308 11.664 13.1688 8.8128C14.0508 7.3872 15.7896 6.0192 18.8532 6.1632C20.394 6.228 24.156 8.1108 23.5728 12.51C23.472 13.3344 23.0436 14.4324 23.0436 14.4324L25.11 13.9716L25.56 15.6024Z" fill="white"/>
<path d="M22.6836 27.3204C21.762 28.7208 19.9872 30.042 16.9308 29.8188C15.39 29.7144 11.682 27.7308 12.3804 23.3496C12.5028 22.5288 12.96 21.4452 12.96 21.4452L10.8828 21.8484L10.476 20.2104L15.5484 19.008L16.5348 24.264L15.0264 24.5628L14.5008 22.068C14.5008 22.068 13.0824 24.2604 14.832 26.622C15.8688 27.8388 16.3728 27.9 17.5716 28.1196C18.6192 28.2996 21.0816 28.0044 21.888 25.164C22.2444 23.3316 21.9312 21.9564 19.6056 20.106L19.7928 18.1225C19.7928 18.1225 22.3956 20.0592 23.0436 21.3876C23.5404 22.4424 24.3936 24.516 22.6836 27.3204Z" fill="white"/>
</svg>
