<svg width="24" height="24" viewBox="0 0 24 24" fill="none" xmlns="http://www.w3.org/2000/svg">
<path d="M0 12C0 5.3726 5.3726 0 12 0C18.6274 0 24 5.3726 24 12C24 18.6274 18.6274 24 12 24C5.3726 24 0 18.6274 0 12Z" fill="#006AE3"/>
<path d="M11.5059 17.0592V7.0752H12.593V17.0592H11.5059Z" fill="white"/>
<path d="M17.0367 10.4016L13.6794 11.292L12.9307 7.80716L13.929 7.58156L14.3225 9.23276C14.3225 9.23276 15.2296 7.74476 14.0202 6.20396C13.3074 5.41196 12.9691 5.37836 12.1699 5.25356C11.4668 5.15276 9.83259 5.39036 9.34544 7.29836C9.13904 8.52716 9.37184 9.43676 10.9557 10.6272L10.8669 11.952C10.8669 11.952 9.09829 10.7064 8.64229 9.83276C8.28954 9.14156 7.68479 7.77596 8.77669 5.87516C9.36464 4.92477 10.5237 4.01277 12.5659 4.10877C13.593 4.15197 16.1007 5.40716 15.712 8.33996C15.6448 8.88956 15.3592 9.62156 15.3592 9.62156L16.7367 9.31436L17.0367 10.4016Z" fill="white"/>
<path d="M15.12 18.2135C14.5056 19.1471 13.3226 20.0279 11.2852 19.8791C10.2581 19.8095 7.78632 18.4871 8.25187 15.5663C8.33347 15.0191 8.63822 14.2967 8.63822 14.2967L7.25357 14.5655L6.98242 13.4735L10.3637 12.6719L11.0212 16.1759L10.0157 16.3751L9.66532 14.7119C9.66532 14.7119 8.71982 16.1735 9.88612 17.7479C10.5772 18.5591 10.9132 18.5999 11.7123 18.7463C12.4107 18.8663 14.0521 18.6695 14.5896 16.7759C14.8272 15.5543 14.6184 14.6375 13.0682 13.4039L13.193 12.0815C13.193 12.0815 14.928 13.3727 15.36 14.2583C15.6911 14.9615 16.2599 16.3439 15.12 18.2135Z" fill="white"/>
</svg>