<svg width="13" height="12" viewBox="0 0 13 12" fill="none" xmlns="http://www.w3.org/2000/svg">
<path d="M10.7325 5.04803C10.6125 5.04803 10.4975 5.09568 10.4127 5.18048C10.3279 5.26529 10.2803 5.38031 10.2803 5.50024V10.7007C10.2803 10.8062 10.2383 10.9074 10.1637 10.9821C10.0891 11.0567 9.98785 11.0986 9.88231 11.0986H1.30237C1.19735 11.0978 1.0969 11.0555 1.02292 10.981C0.948945 10.9065 0.907433 10.8057 0.907436 10.7007V2.12073C0.907433 2.0157 0.948945 1.91494 1.02292 1.8404C1.0969 1.76585 1.19735 1.72358 1.30237 1.72278H6.49977C6.61971 1.72278 6.73473 1.67514 6.81953 1.59033C6.90434 1.50553 6.95198 1.3905 6.95198 1.27057C6.95198 1.15064 6.90434 1.03561 6.81953 0.950809C6.73473 0.866003 6.61971 0.818359 6.49977 0.818359H1.30237C0.957202 0.819156 0.626402 0.956624 0.382334 1.20069C0.138265 1.44476 0.00079623 1.77556 0 2.12073V10.7007C0.00159098 11.0453 0.139411 11.3753 0.383393 11.6188C0.627376 11.8622 0.957722 11.9992 1.30237 12H9.88231C10.2269 11.9992 10.5573 11.8622 10.8013 11.6188C11.0453 11.3753 11.1831 11.0453 11.1847 10.7007V5.50024C11.1847 5.38031 11.137 5.26529 11.0522 5.18048C10.9674 5.09568 10.8524 5.04803 10.7325 5.04803V5.04803Z" fill="#39295A"/>
<path d="M11.456 0.547016C11.104 0.19668 10.6276 0 10.131 0C9.63443 0 9.15803 0.19668 8.80606 0.547016L5.39037 3.96271C5.34075 4.01268 5.30357 4.0736 5.28184 4.14058L4.28396 7.15532C4.2582 7.23463 4.25487 7.31952 4.27434 7.4006C4.29381 7.48169 4.33533 7.55581 4.39429 7.61477C4.45326 7.67374 4.52738 7.71525 4.60846 7.73472C4.68954 7.75419 4.77443 7.75086 4.85374 7.7251L7.86848 6.72723C7.93546 6.70549 7.99638 6.66831 8.04635 6.61869L11.456 3.19697C11.8064 2.845 12.003 2.3686 12.003 1.87199C12.003 1.37538 11.8064 0.898988 11.456 0.547016V0.547016ZM7.47656 5.89817L5.42353 6.5795L6.10486 4.52647L8.56488 2.06946L9.93357 3.43815L7.47656 5.89817ZM10.8169 2.56086L10.5727 2.80204L9.20401 1.43335L9.44519 1.18915C9.62946 1.01929 9.8723 0.927282 10.1229 0.93238C10.3734 0.937477 10.6123 1.03929 10.7895 1.2165C10.9668 1.39372 11.0686 1.63261 11.0737 1.88318C11.0788 2.13375 10.9868 2.37658 10.8169 2.56086V2.56086Z" fill="#39295A"/>
</svg>
